<svg xmlns="http://www.w3.org/2000/svg" viewBox="0 0 120.57 118.63"><defs><style>.cls-1{fill:#f5fafe;}.cls-2{fill:#a6b5dc;}.cls-3{fill:#6670a2;}.cls-4{fill:#ec658d;}.cls-5{fill:#adbbdf;}.cls-6{fill:#efae99;}.cls-7{fill:#5a5869;}</style></defs><g id="Layer_2" data-name="Layer 2"><g id="Layer_1-2" data-name="Layer 1"><path class="cls-1" d="M13.19,33.42c0-5.47,0-10.94,0-16.4s1.25-6.17,6.56-5.37c17.34,2.64,30.6,11.56,40.54,25.76q-.07,29.45-.17,58.9c0,1.49.19,3.12-.33,4.43-.88,2.18-2.52,3.26-4.52,1-9.81-11.23-22.4-17.48-36.87-20-4.26-.75-5.35-2.88-5.31-6.81C13.26,61,13.18,47.23,13.19,33.42ZM26.35,58.33c-.1,2.79-.48,5.57,2.82,6.32,2,.46,4.19,3.4,5.51,1.69s.42-4.76.5-7.23a1.14,1.14,0,0,0,0-.49A8.44,8.44,0,0,0,27.5,54C25.21,54,26.85,57,26.35,58.33Zm25.86-9.86a8.93,8.93,0,0,0-1.15-1.61A60.12,60.12,0,0,0,28,33.57c-.8-.25-1.83-.28-2.21.56-.55,1.19.43,1.89,1.38,2.17,8.6,2.52,15.92,7.21,22.58,13.08a2.51,2.51,0,0,0,1.76.4C51.79,49.75,52,49,52.21,48.47ZM52,58a21.06,21.06,0,0,0-1.88-2.16A59.42,59.42,0,0,0,39.29,48a49.36,49.36,0,0,0-11-4.52c-.88-.24-2.12-.44-2.56.79-.36,1,.5,1.59,1.26,1.81a57.43,57.43,0,0,1,22.3,12.69C50.16,59.54,51.38,59.91,52,58ZM36.47,27.08c-.69.42-1.46.61-1.67,1.07-.43,1,.4,1.58,1.11,1.91a44.42,44.42,0,0,1,13.26,9.45c.71.72,1.76,1.21,2.59.2s.18-2-.57-2.59c-2.94-2.4-5.89-4.81-9-7A49.44,49.44,0,0,0,36.47,27.08ZM52.12,67.82c-2.49-2.7-5-5.47-8.38-7.39-.68-.39-1.4-1.19-2.16-.36s-.29,1.87.49,2.55c2.37,2.06,4.75,4.1,7.2,6.05C50.21,69.42,51.35,69.84,52.12,67.82Zm-.83,11.39c-1.28-4.28-4.18-6.82-7.46-9-.77-.5-1.79-1.24-2.5,0a1.67,1.67,0,0,0,.7,2.15C45.1,74.71,48.2,77,51.29,79.21Z"/><path class="cls-1" d="M112.3,35.35c6.42.5,7.89,2,7.88,8.11q0,32.05-.11,64.11c-17.61-8.07-35.59-7.68-53.79-2.38q-.11-34.87-.22-69.75c4.32-1,8.39-3.12,13-3.09-.48,7.64,3.13,12.5,10.2,15L89,55.14c-7,1.71-11.63,5.61-13.25,13-1.54,7.11-3,14.23-4.14,21.41-.4,2.47.63,2.92,2.66,2.81,3.8-.2,7.59-.44,11.39-.79,3.5-.33,5.6-1.12,5.88-5a5,5,0,0,1,4.63-5c4.34-.58,6-3.55,6.83-7.43.76-3.61.79-7.4,4.5-9.93,1.72-1.16,1.83-3.74.75-6-1.16-2.39-3-1.31-4.74-1.16-.83.08-1.66,0-2.49,0,0-3.32,0-6.64-.05-10A19.53,19.53,0,0,0,112.3,35.35Z"/><path class="cls-2" d="M66.06,35.44q.1,34.88.22,69.75a11.56,11.56,0,0,1-10.4,1c-18.62-6.76-37.15-7-55.46,1.22Q.31,74.5.18,41.54c0-2.69,1-4.52,3.5-5.39,3.12-1.08,6.08-2.73,9.51-2.73,0,13.81.07,27.62-.07,41.43,0,3.93,1.05,6.06,5.31,6.81,14.47,2.57,27.06,8.82,36.87,20,2,2.29,3.64,1.21,4.52-1,.52-1.31.32-2.94.33-4.43q.1-29.46.17-58.9Z"/><path class="cls-3" d="M.42,107.45c18.31-8.2,36.84-8,55.46-1.22a11.56,11.56,0,0,0,10.4-1c18.2-5.3,36.18-5.69,53.79,2.38,0,3.48,1.35,8.11-.37,10.15-2,2.42-6.22-.71-9.5-1.25-15.75-2.58-31.41-2.92-46.92,1.54-5.31,1.53-10.16-1.12-15.15-2-14.35-2.52-28.53-1.56-42.55,1.64-4.51,1-6.1.49-5.43-4.24C.42,111.45.34,109.44.42,107.45Z"/><path class="cls-4" d="M112.3,35.35A19.54,19.54,0,0,1,101,47.3l-11.77.07C82.16,44.85,78.55,40,79,32.35a18.07,18.07,0,0,1,2.48-8c1.53-2.42,3-5,6.37-1.67,1.56,1.55,3.82.87,5.49-.45a3.93,3.93,0,0,0,1-5.35,37.7,37.7,0,0,0-2.78-4.66,8.85,8.85,0,0,1-1.14-7.61C90.94,2.71,91.89.37,93.86,0s1.81,2.33,2.61,3.63a14.91,14.91,0,0,0,4.85,4.89C111.4,14.85,115,23.81,112.3,35.35Zm-12,1.46c0-3.35-3.45-8.88-5.13-8.09-3.19,1.5-4.66,4.61-5,8S92,42,95.25,42.08,100.41,40.3,100.27,36.81Z"/><path class="cls-4" d="M79.89,7.38c2.47-.06,3.35,1.22,3.33,3.4s-1.33,3-3.16,3c-2.15,0-3.34-1.31-3.22-3.5C77,8.36,77.94,7.22,79.89,7.38Z"/><path class="cls-5" d="M26.35,58.33C26.85,57,25.21,54,27.5,54a8.44,8.44,0,0,1,7.63,4.64,1.14,1.14,0,0,1,0,.49c-.08,2.47.72,5.63-.5,7.23s-3.52-1.23-5.51-1.69C25.87,63.9,26.25,61.12,26.35,58.33Z"/><path class="cls-5" d="M52.21,48.47c-.26.53-.42,1.28-.67,1.31a2.51,2.51,0,0,1-1.76-.4c-6.66-5.87-14-10.56-22.58-13.08-.95-.28-1.93-1-1.38-2.17.38-.84,1.41-.81,2.21-.56a60.12,60.12,0,0,1,23,13.29A8.93,8.93,0,0,1,52.21,48.47Z"/><path class="cls-5" d="M52,58c-.64,1.91-1.86,1.54-2.74.75A57.43,57.43,0,0,0,27,46.06c-.76-.22-1.62-.82-1.26-1.81.44-1.23,1.68-1,2.56-.79a49.36,49.36,0,0,1,11,4.52,59.42,59.42,0,0,1,10.85,7.86A21.06,21.06,0,0,1,52,58Z"/><path class="cls-5" d="M36.47,27.08a49.44,49.44,0,0,1,5.74,3.05c3.09,2.18,6,4.59,9,7,.75.62,1.36,1.63.57,2.59s-1.88.52-2.59-.2a44.42,44.42,0,0,0-13.26-9.45c-.71-.33-1.54-1-1.11-1.91C35,27.69,35.78,27.5,36.47,27.08Z"/><path class="cls-5" d="M52.12,67.82c-.77,2-1.91,1.6-2.85.85-2.45-2-4.83-4-7.2-6.05-.78-.68-1.38-1.6-.49-2.55s1.48,0,2.16.36C47.08,62.35,49.63,65.12,52.12,67.82Z"/><path class="cls-5" d="M51.29,79.21C48.2,77,45.1,74.71,42,72.43a1.67,1.67,0,0,1-.7-2.15c.71-1.28,1.73-.54,2.5,0C47.11,72.39,50,74.93,51.29,79.21Z"/><path class="cls-6" d="M101,57.26c.83,0,1.66,0,2.49,0,1.72-.15,3.58-1.23,4.74,1.16,1.08,2.23,1,4.81-.75,6-3.71,2.53-3.74,6.32-4.5,9.93-.81,3.88-2.49,6.85-6.83,7.43a5,5,0,0,0-4.63,5c-.28,3.83-2.38,4.62-5.88,5-3.8.35-7.59.59-11.39.79-2,.11-3.06-.34-2.66-2.81,1.16-7.18,2.6-14.3,4.14-21.41C77.39,60.75,82,56.85,89,55.14c.21,2.23.31,4.3,3.69,3.38A67.73,67.73,0,0,1,101,57.26Z"/><path class="cls-7" d="M101,57.26a67.73,67.73,0,0,0-8.33,1.26c-3.38.92-3.48-1.15-3.69-3.38l.21-7.77L101,47.3Q101,52.28,101,57.26Z"/><path class="cls-1" d="M100.27,36.81c.14,3.49-1.66,5.36-5,5.27s-5.35-2-5.06-5.37,1.76-6.49,5-8C96.82,27.93,100.24,33.46,100.27,36.81Z"/></g></g></svg>