<svg xmlns="http://www.w3.org/2000/svg" viewBox="0 0 112.89 116.02"><defs><style>.cls-1{fill:#ec658d;}.cls-2{fill:#7184c1;}.cls-3{fill:#6b825b;}.cls-4{fill:#a6b5dc;}.cls-5{fill:#e6806c;}.cls-6{fill:#9fb78e;}.cls-7{fill:#f5fafe;}.cls-8{fill:#f9b75f;}.cls-9{fill:#dbdbe4;}.cls-10{fill:#5a5869;}.cls-11{fill:#fff;}</style></defs><g id="Layer_2" data-name="Layer 2"><g id="Layer_1-2" data-name="Layer 1"><path class="cls-1" d="M48.53,49.47A23.82,23.82,0,0,1,35.15,22.39c2-8.5,9.87-11.59,20-7.82L57,16.14c3.25-1.29,6.25-3.29,9.89-3.51,10.44,1.31,15.22,7.91,13.35,18.28-1.5,8.25-5.11,15-13.14,18.55Z"/><path class="cls-2" d="M48.53,49.47h18.6c10.64.34,21.3.53,32-.11,9.89-.6,16.27,6.95,12.9,15.3-1.91,4.74-5.65,6.81-10.57,6.92-5.82.13-11.65.14-17.48.2H62.67L39,71.87c-3.92-.89-8.1.88-11.9-1.16-1.42-5.61,2.89-4.42,5.8-4.88a30.5,30.5,0,0,0,3.89.52q24.92,0,49.82,0c1.47,0,3,.29,4.36-.62,3.3,0,6.61,0,9.91,0,3.75.07,5.64-2.28,5.81-5.45s-2.2-5.08-5.32-5.48A57.54,57.54,0,0,0,95,54.7l-61,.1c-1.15-.06-2.32,0-3.46-.21-1.3-.18-3.29.77-3.37-1.68s1.43-3.15,3.53-3.18Z"/><path class="cls-3" d="M37.28,111.21l64.45.08,1.27.25c1.64.64,2.51,1.89,1.8,3.5s-2.37.79-3.58.79q-33.73.08-67.48,0c-7.39,0-11.68-2.68-13.73-8.46-2.15-6.06-.23-11.22,5.92-15.94l2.2-.9c3.81,0,7.65.27,11.44,0,3.62-.31,4.27,1.16,3.39,4.18a3,3,0,0,0-.84.4A89,89,0,0,0,32.19,95,7.74,7.74,0,0,0,25,103.09c.08,4.27,2.89,7.2,7.46,7.75,1.15.14,2.31.24,3.46.35Z"/><path class="cls-4" d="M35.92,111.19c-1.15-.11-2.31-.21-3.46-.35-4.57-.55-7.38-3.48-7.46-7.75A7.74,7.74,0,0,1,32.19,95a89,89,0,0,1,9.93.07C41,97.52,41,98.64,44.47,98.92c15.26,1.23,30.53.2,45.79.65,1.69.05,4.28-1.27,4.66,2H39.71c0,.75,0,1.5,0,2.25H94.87c.42,3.78-2.4,2.81-4.33,2.81q-24.21.08-48.41,0c-2.89,0-5.52,0-5.28,4Z"/><path class="cls-5" d="M27.12,70.71c3.8,2,8,.27,11.9,1.16a35,35,0,0,1-3.77,9.19c-1.57,2.85-.81,3.72,2.35,3.68,8.16-.11,16.32,0,24.48,0,0,1.66.08,3.33.11,5l-33.95.39-2.37.28-2.1-.64q.14-9,.28-18C25.12,71.55,26.44,72.09,27.12,70.71Z"/><path class="cls-6" d="M28.24,90.15l34-.39a16.38,16.38,0,0,0,9.8-.05c4,0,8,.54,11.94-.36,5.77,1.14,11.6.22,17.39.55,1.5.09,3.66-.66,3.71,2,0,2.46-1.73,3-3.73,3Q72.14,94.81,43,94.68c.88-3,.23-4.49-3.39-4.18-3.79.32-7.63.06-11.45,0Z"/><path class="cls-7" d="M34,54.8l61-.1c0,3.86-2,5-5.7,4.94-18.1-.12-36.2,0-54.29,0C34.62,58.05,34.29,56.42,34,54.8Z"/><path class="cls-7" d="M91,65.74c-1.35.91-2.89.62-4.36.62q-24.91,0-49.82,0a30.5,30.5,0,0,1-3.89-.52c.7-1.41,1.4-2.81,2.09-4.22,17.62,0,35.24.11,52.86,0C91.08,61.64,92.86,62.15,91,65.74Z"/><path class="cls-5" d="M14.9,89.73a3.06,3.06,0,0,1-.88.45C2,91.66-2.3,86.42,1.17,74.42c.62-2.15,2.05-2.88,4.09-2.84,3.16.06,6.32.14,9.47.21Q14.82,80.76,14.9,89.73Z"/><path class="cls-4" d="M91,65.74c1.87-3.59.09-4.1-3.12-4.08-17.62.06-35.24,0-52.86,0,0-.65,0-1.29,0-1.93,18.09,0,36.19-.16,54.29,0C93,59.67,95,58.56,95,54.7a57.54,57.54,0,0,1,6.44.13c3.12.4,5.49,2.29,5.32,5.48s-2.06,5.52-5.81,5.45C97.6,65.71,94.29,65.74,91,65.74Z"/><path class="cls-8" d="M72,71.78h12c2.35,4.14,1,8.59,1.12,12.92h-13Q72,78.24,72,71.78Z"/><path class="cls-9" d="M14.9,89.73q-.09-9-.17-17.94l9.32,0q-.15,9-.28,18Z"/><path class="cls-6" d="M66.92,12.63c-3.64.22-6.64,2.22-9.89,3.5-.07-1.84-.13-3.68-.2-5.53.55-4.33,3.2-7.2,6.71-9.37S68.35-.28,68.82,4A15,15,0,0,1,66.92,12.63Z"/><path class="cls-7" d="M94.87,103.86H39.73c0-.75,0-1.5,0-2.25H94.92C94.9,102.36,94.89,103.11,94.87,103.86Z"/><path class="cls-5" d="M72.08,84.7h13a5.37,5.37,0,0,1-1.12,4.66c-4,.9-8,.36-11.94.36-.06-1.68-.13-3.36-.19-5Z"/><path class="cls-10" d="M56.83,10.6c.07,1.85.13,3.69.2,5.53l-1.91-1.56c-.75-3.1-3-5-5.42-6.78-1-.7-2.9-1.24-1.67-2.85,1.08-1.41,2.46-.11,3.4.67C53.32,7.17,55,8.93,56.83,10.6Z"/><path class="cls-9" d="M28.24,90.15l-.12.4-2.19.9-.06-1Z"/><path class="cls-6" d="M103,111.54l-1.27-.25C102.26,110.83,102.66,111.05,103,111.54Z"/><path class="cls-6" d="M35.92,111.19l.93-.52a.74.74,0,0,1,.43.54Z"/><path class="cls-8" d="M62.08,84.77c-8.16,0-16.32-.14-24.48,0-3.16,0-3.92-.83-2.35-3.68A35,35,0,0,0,39,71.87l23.65-.09.15,12.85A6.42,6.42,0,0,0,62.08,84.77Z"/><path class="cls-11" d="M62.82,84.63l-.15-12.85H72q.06,6.45.11,12.92l-.28,0Z"/><path class="cls-9" d="M62.82,84.63l9,0c.06,1.68.13,3.36.19,5a16.38,16.38,0,0,1-9.8.05c0-1.66-.07-3.33-.11-5A6.42,6.42,0,0,1,62.82,84.63Z"/></g></g></svg>