<svg xmlns="http://www.w3.org/2000/svg" viewBox="0 0 120.22 107.63"><defs><style>.cls-1{fill:#f5fafe;}.cls-2{fill:#a6b5dc;}.cls-3{fill:#6670a2;}.cls-4{fill:#ec658d;}.cls-5{fill:#adbbdf;}.cls-6{fill:#e28785;}.cls-7{fill:#5a5869;}.cls-8{fill:#9fb78e;}.cls-9{fill:#6b825b;}</style></defs><g id="Layer_2" data-name="Layer 2"><g id="Layer_1-2" data-name="Layer 1"><path class="cls-1" d="M13,22.05c0-5.79.16-11.59,0-17.39C12.93.51,14.76-.5,18.58.21c16.74,3.08,31,10.06,40.41,25,.24.38.81.55,1.23.81q-.11,30.42-.2,60.85c0,1.78.44,3.89-1.79,4.72-2,.76-3-1-4.07-2.21-9.38-10.49-21.45-15.92-35-18.57-4.49-.88-6.35-3-6.25-7.82C13.23,49.33,13,35.69,13,22.05ZM26.18,47.13c0,5.13,2.14,7.55,7,8.3.93.15,1.76.14,1.77-.94,0-2.62.64-5.56-.33-7.78-1.2-2.76-4.64-4.1-7.4-4.06C25.15,42.68,26.69,45.72,26.18,47.13Zm.19-25c.35.06-.52.26-.76,1.18-.45,1.71,1.14,1.93,2.1,2.17,6.39,1.63,11.78,5.11,17.16,8.74,2.16,1.46,4.64,6.19,6.29,3.9,2.27-3.16-2.94-4.62-5.07-6.35A46.52,46.52,0,0,0,26.37,22.15ZM27.85,32c-1.35,0-2.22.07-2.46,1.1s.47,1.54,1.31,1.75C35.44,37.08,42.61,42,49.36,47.74c.62.52,1.39,1.26,2.13.53,1.18-1.16.18-2.16-.64-2.94a61.7,61.7,0,0,0-14.22-9.88A77.1,77.1,0,0,0,27.85,32ZM36.43,16.1c-.21.1-.77.19-1,.51a1.16,1.16,0,0,0,.19,1.75C40.9,21.13,45.42,25,50.08,28.68c.76.6,2,.09,1.6-1.43C51.14,25.15,39,16.14,36.43,16.1Zm5.32,32.8c-.24.11-.84.21-1.06.55a1.23,1.23,0,0,0,.45,1.69c2.86,2.17,5.68,4.4,8.62,6.46.84.59,2,.47,2-1C51.74,54.91,43.8,48.74,41.75,48.9ZM51.83,66.77c0-1.63-8.52-8.81-10-8.52a2.13,2.13,0,0,0-1.14.84,1.08,1.08,0,0,0,.47,1.66c3.19,1.57,5.43,4.28,8.11,6.47C50.15,68,51.33,68.41,51.83,66.77Z"/><path class="cls-1" d="M66.1,24.76c3.76-3,8.62-2.26,12.8-3.84-.21,3.1,1.19,4.7,4.35,4.47,2.57-.19,3.89.46,3.9,3.48,0,4,7,6.55,7.49,4,1.19-6.62,7.77-6.66,10.35-11,4.47-.17,8.31,2.08,12.39,3.34,2.11.65,2.71,2.62,2.7,4.84q-.18,33.12-.26,66.24c-4.37-1.48-8.69-3.14-13.13-4.4-13.73-3.88-27.19-1.11-40.61,2Q66.1,59.33,66.1,24.76ZM86.1,52c-3.73-2.85-7-6.29-11.9-7.45-3.14-.74-4,.48-3.82,3.14a20.76,20.76,0,0,0,4.84,12.11c-3.51-.31-4.34,1.23-3.35,4.47a17.23,17.23,0,0,0,2.23,4.94c2.68,3.85,8.83,4,10.11,9.41.06.27,1.21.39,1.86.39,3.82,0,7.65,0,11.47,0,1.41,0,3-.31,3.11-1.84.14-2.89,2.35-3.25,4.21-4.21a14.56,14.56,0,0,0,5.47-5c1.43-2.13,2.52-4.71,1.42-7-1-2.08-3.59-.68-5.43-1.06-.65-.13-1.31-.2-2-.3,4-4.56,4.1-11.33,9.26-15.53,2.18-1.78-1.66-3.21-3.06-4.51-1-1-2.65-2.13-3.5.16C104.51,46.5,98,50,94,55.53a18.16,18.16,0,0,0,0-2.45c-.44-2.9-.82-7.06-3.48-7.44S87,49.33,86.1,52Z"/><path class="cls-2" d="M66.1,24.76q0,34.56,0,69.13c-3.66,2.43-7.25,2.27-11.33.62-7.44-3-15.39-4-23.36-4.52-10.88-.77-21,2.4-31,6.1Q.24,62.93.07,29.76a4.53,4.53,0,0,1,3.48-4.82C6.71,24,9.87,23,13,22.05,13,35.69,13.23,49.33,13,63c-.1,4.81,1.76,6.94,6.25,7.82,13.51,2.65,25.58,8.08,35,18.57,1,1.16,2,3,4.07,2.21,2.23-.83,1.78-2.94,1.79-4.72q.12-30.42.2-60.85Z"/><path class="cls-3" d="M.37,96.09c10-3.7,20.14-6.87,31-6.1,8,.57,15.92,1.53,23.36,4.52,4.08,1.65,7.67,1.81,11.33-.62,13.42-3.06,26.88-5.83,40.61-2,4.44,1.26,8.76,2.92,13.13,4.4,1,11.28,1,11.15-9.68,9.11a106.48,106.48,0,0,0-45.06.76,22.26,22.26,0,0,1-10.76,0c-18-4.31-36-3.32-53.94,1.45A44.58,44.58,0,0,1,.37,96.09Z"/><path class="cls-4" d="M105,21.92c-2.58,4.32-9.16,4.36-10.35,11-.46,2.52-7.49-.06-7.49-4,0-3-1.33-3.67-3.9-3.48-3.16.23-4.56-1.37-4.35-4.47-.2-3.41.59-6,4.81-5.49,3.15.37,3.61-1.49,3.34-3.94-.37-3.36,1.43-4.35,4.43-4.33s5.32.46,5.36,4.19c0,1.68-.56,4.25,2.29,4C104.44,14.76,105.2,17.81,105,21.92Z"/><path class="cls-5" d="M26.18,47.13c.51-1.41-1-4.45,1.06-4.48,2.76,0,6.2,1.3,7.4,4.06,1,2.22.37,5.16.33,7.78,0,1.08-.84,1.09-1.77.94C28.32,54.68,26.18,52.26,26.18,47.13Z"/><path class="cls-5" d="M26.37,22.15a46.52,46.52,0,0,1,19.72,9.64c2.13,1.73,7.34,3.19,5.07,6.35-1.65,2.29-4.13-2.44-6.29-3.9-5.38-3.63-10.77-7.11-17.16-8.74-1-.24-2.55-.46-2.1-2.17C25.85,22.41,26.72,22.21,26.37,22.15Z"/><path class="cls-5" d="M27.85,32a77.1,77.1,0,0,1,8.78,3.43,61.7,61.7,0,0,1,14.22,9.88c.82.78,1.82,1.78.64,2.94-.74.73-1.51,0-2.13-.53C42.61,42,35.44,37.08,26.7,34.87c-.84-.21-1.54-.72-1.31-1.75S26.5,32.05,27.85,32Z"/><path class="cls-5" d="M36.43,16.1c2.57,0,14.71,9,15.25,11.15.39,1.52-.84,2-1.6,1.43C45.42,25,40.9,21.13,35.59,18.36a1.16,1.16,0,0,1-.19-1.75C35.66,16.29,36.22,16.2,36.43,16.1Z"/><path class="cls-5" d="M41.75,48.9c2-.16,10,6,10,7.68,0,1.49-1.16,1.61-2,1-2.94-2.06-5.76-4.29-8.62-6.46a1.23,1.23,0,0,1-.45-1.69C40.91,49.11,41.51,49,41.75,48.9Z"/><path class="cls-5" d="M51.83,66.77c-.5,1.64-1.68,1.2-2.59.45-2.68-2.19-4.92-4.9-8.11-6.47a1.08,1.08,0,0,1-.47-1.66,2.13,2.13,0,0,1,1.14-.84C43.31,58,51.83,65.14,51.83,66.77Z"/><path class="cls-6" d="M104.35,59.57c.66.1,1.32.17,2,.3,1.84.38,4.44-1,5.43,1.06,1.1,2.33,0,4.91-1.42,7a14.56,14.56,0,0,1-5.47,5c-1.86,1-4.07,1.32-4.21,4.21C100.58,78.69,99,79,97.54,79c-3.82,0-7.65,0-11.47,0-.65,0-1.8-.12-1.86-.39C82.93,73.17,76.78,73,74.1,69.18a17.23,17.23,0,0,1-2.23-4.94c-1-3.24-.16-4.78,3.35-4.47l7,0,3.92,0H89l3-.23Z"/><path class="cls-7" d="M104.35,59.57,92,59.53l2-4c4-5.56,10.5-9,13-15.84.85-2.29,2.46-1.14,3.5-.16,1.4,1.3,5.24,2.73,3.06,4.51C108.45,48.24,108.37,55,104.35,59.57Z"/><path class="cls-8" d="M89,59.76H86.09L79.44,52c-.67-.77-1.53-1.5-2.51-.8-1.18.85-.2,1.7.37,2.43,1.61,2.05,3.24,4.08,4.87,6.11l-7,0a20.76,20.76,0,0,1-4.84-12.11c-.16-2.66.68-3.88,3.82-3.14,4.9,1.16,8.17,4.6,11.9,7.45Z"/><path class="cls-9" d="M89,59.76,86.1,52c.87-2.64,1.85-6.69,4.39-6.33s3,4.54,3.48,7.44a18.16,18.16,0,0,1,0,2.45l-2,4Z"/><path class="cls-9" d="M82.17,59.73c-1.63-2-3.26-4.06-4.87-6.11-.57-.73-1.55-1.58-.37-2.43,1-.7,1.84,0,2.51.8l6.65,7.78Z"/></g></g></svg>