<svg xmlns="http://www.w3.org/2000/svg" viewBox="0 0 120.45 115.4"><defs><style>.cls-1{fill:#f5fafe;}.cls-2{fill:#a6b5dc;}.cls-3{fill:#6670a2;}.cls-4{fill:#9fb78e;}.cls-5{fill:#6b825b;}.cls-6{fill:#adbbdf;}.cls-7{fill:#e28785;}</style></defs><g id="Layer_2" data-name="Layer 2"><g id="Layer_1-2" data-name="Layer 1"><path class="cls-1" d="M13.07,29.82c0-5.31,0-10.61.09-15.92.05-5.54,1-6.16,6.39-5.42a57.17,57.17,0,0,1,31,14.24c3.65,3.26,6.57,7.32,9.81,11-.1,2-.28,4-.28,6q0,27.24,0,54.47c0,1.78.59,4-1.43,5-2.44,1.2-3.56-1.16-4.86-2.49A61.17,61.17,0,0,0,19,78.65C14.73,78,13,76.24,13,71.8,13.23,57.81,13.08,43.82,13.07,29.82ZM35.16,59.21c0-4.72-2.65-8.27-6.44-8.45s-2.31,2.88-2.41,4.64c-.22,4.09,3.69,8.39,7.22,8C36.43,63,34.54,60.43,35.16,59.21ZM52.06,55c-.77-2.4-3-3.17-4.57-4.54A47.93,47.93,0,0,0,28.43,40.24c-1.26-.34-2.48-.54-2.81.94s1.11,1.39,2,1.67a71.06,71.06,0,0,1,11.73,5.3c3.56,1.85,6.44,4.6,9.48,7.15.7.58,1.58,1.37,2.65.81C51.81,55.94,51.89,55.3,52.06,55ZM25.6,31.12c.19.61.2,1.11.38,1.17C34.62,35.42,42.73,39.41,49.34,46a1.47,1.47,0,0,0,2.22.12c.89-1.09-.19-1.81-.82-2.48a51.1,51.1,0,0,0-19.11-12.2C29.64,30.67,27.69,30,25.6,31.12Zm26.34,4.33a5.22,5.22,0,0,0-.56-1A41.91,41.91,0,0,0,37,24.13c-.69-.3-1.39-.26-1.69.41a1.82,1.82,0,0,0,1,2.47,55.9,55.9,0,0,1,12.95,9,2.67,2.67,0,0,0,1.83.39C51.46,36.39,51.7,35.76,51.94,35.45Zm-10,21.17c-.22.1-.81.17-1.07.51a1.17,1.17,0,0,0,.35,1.71c3,2.37,5.93,4.81,9,7,1.09.79,1.88.06,1.75-1.28C51.8,62.9,44,56.58,41.91,56.62Zm-2,10.54c3.34,2.76,6,5,8.62,7.16.26.21.48.46.76.65.7.47,1.49.89,2.24.22a1.53,1.53,0,0,0,.23-1.28C51.05,71.26,43.93,66.89,39.86,67.16Z"/><path class="cls-1" d="M103,28.57c4,1.67,8.25,2.33,12.32,3.78,3.9,1.39,4.92,3.48,4.89,7.36-.16,21.62-.08,43.25-.08,64.87a64.21,64.21,0,0,0-19.23-6.13c-11.9-2.06-23.29.72-34.75,3.12l0-69.13c3-1.79,6.32-2.17,9.6-2.85q.67,6,1.34,12l-6.3-2.46c-.58,5.8.67,8.67,6.56,15.33-1.86.35-4.58-.73-4,3.14,1.17,7.35,2.11,14.74,2.95,22.13.48,4.33,2.66,6,6.93,5.77a75.78,75.78,0,0,1,10.44,0c4.92.39,6.82-1.91,7.28-6.54.68-6.91,1.47-13.83,2.72-20.65.66-3.6-.93-4-3.62-3.84,5.05-5.23,6.71-11.64,7.12-19.6l-6.14,4A41.45,41.45,0,0,1,103,28.57Z"/><path class="cls-2" d="M66.17,32.44l0,69.13c-3.59,2.7-7.34,2.23-11.31.85A78,78,0,0,0,25.5,97.7c-8.73.37-16.91,3.16-25,6.09Q.31,75.19.15,46.56v-1c0-12.79,0-12.79,12.92-15.75,0,14,.16,28,0,42C13,76.24,14.73,78,19,78.65a61.17,61.17,0,0,1,34.84,18c1.3,1.33,2.42,3.69,4.86,2.49,2-1,1.43-3.19,1.43-5q0-27.23,0-54.47c0-2,.18-4,.28-6Z"/><path class="cls-3" d="M.47,103.79c8.12-2.93,16.3-5.72,25-6.09a78,78,0,0,1,29.33,4.72c4,1.38,7.72,1.85,11.31-.85,11.46-2.4,22.85-5.18,34.75-3.12a64.21,64.21,0,0,1,19.23,6.13c-.09,3.47,1.15,8.21-.63,10.08-2,2.1-6.31-.84-9.64-1.41-13.55-2.32-27.13-3-40.54.19-7.43,1.79-14.37.64-21.57-.66a101.55,101.55,0,0,0-43.43,1.94c-3.92,1-4.59,0-4.22-3.49C.35,108.76.35,106.27.47,103.79Z"/><path class="cls-4" d="M103,28.57a41.45,41.45,0,0,0-1.91,10.28c-2.4,5.31-4.54,10.75-7.88,15.58l-8.93,0c-1.17-7-1.74-14-.16-21.11.9-4.06,3.66-7.42,4-11.64,5-6.91,8.16-15,14.46-21.71C104.81,9.77,103.11,19.19,103,28.57Z"/><path class="cls-5" d="M88.07,21.71c-.3,4.22-3.06,7.58-4,11.64-1.58,7.09-1,14.08.16,21.11l-2,0c-2.33-4-1.49-9.35-5.18-12.83q-.66-6-1.34-12c.33-7.73.69-15.46,2.93-23.58C83.51,10.55,85.63,16.23,88.07,21.71Z"/><path class="cls-6" d="M35.16,59.21c-.62,1.22,1.27,3.77-1.63,4.14-3.53.44-7.44-3.86-7.22-8,.1-1.76-1.41-4.81,2.41-4.64S35.19,54.49,35.16,59.21Z"/><path class="cls-6" d="M52.06,55c-.17.35-.25,1-.58,1.16-1.07.56-1.95-.23-2.65-.81-3-2.55-5.92-5.3-9.48-7.15a71.06,71.06,0,0,0-11.73-5.3c-.89-.28-2.29-.33-2-1.67s1.55-1.28,2.81-.94A47.93,47.93,0,0,1,47.49,50.41C49.08,51.78,51.29,52.55,52.06,55Z"/><path class="cls-6" d="M25.6,31.12c2.09-1.08,4-.45,6,.32a51.1,51.1,0,0,1,19.11,12.2c.63.67,1.71,1.39.82,2.48A1.47,1.47,0,0,1,49.34,46C42.73,39.41,34.62,35.42,26,32.29,25.8,32.23,25.79,31.73,25.6,31.12Z"/><path class="cls-6" d="M51.94,35.45c-.24.31-.48.94-.78,1A2.67,2.67,0,0,1,49.33,36a55.9,55.9,0,0,0-12.95-9,1.82,1.82,0,0,1-1-2.47c.3-.67,1-.71,1.69-.41A41.91,41.91,0,0,1,51.38,34.47,5.22,5.22,0,0,1,51.94,35.45Z"/><path class="cls-6" d="M41.91,56.62c2.08,0,9.89,6.28,10.06,8,.13,1.34-.66,2.07-1.75,1.28-3.1-2.23-6-4.67-9-7a1.17,1.17,0,0,1-.35-1.71C41.1,56.79,41.69,56.72,41.91,56.62Z"/><path class="cls-6" d="M39.86,67.16c4.07-.27,11.19,4.1,11.85,6.75a1.53,1.53,0,0,1-.23,1.28c-.75.67-1.54.25-2.24-.22-.28-.19-.5-.44-.76-.65C45.84,72.12,43.2,69.92,39.86,67.16Z"/><path class="cls-7" d="M82.29,54.42l2,0,8.93,0,6.9,0c2.69-.12,4.28.24,3.62,3.84-1.25,6.82-2,13.74-2.72,20.65-.46,4.63-2.36,6.93-7.28,6.54a75.78,75.78,0,0,0-10.44,0c-4.27.27-6.45-1.44-6.93-5.77C75.51,72.34,74.57,65,73.4,57.6c-.61-3.87,2.11-2.79,4-3.14Z"/><path class="cls-5" d="M100.1,54.48l-6.9,0c3.34-4.83,5.48-10.27,7.88-15.58l6.14-4C106.81,42.84,105.15,49.25,100.1,54.48Z"/><path class="cls-4" d="M82.29,54.42l-4.92,0c-5.89-6.66-7.14-9.53-6.56-15.33l6.3,2.46C80.8,45.07,80,50.38,82.29,54.42Z"/></g></g></svg>