<svg xmlns="http://www.w3.org/2000/svg" viewBox="0 0 120.22 107.63"><defs><style>.cls-1{fill:#f5fafe;}.cls-2{fill:#a6b5dc;}.cls-3{fill:#f9b75f;}.cls-4{fill:#6670a2;}.cls-5{fill:#adbbdf;}.cls-6{fill:#fff;}</style></defs><g id="Layer_2" data-name="Layer 2"><g id="Layer_1-2" data-name="Layer 1"><path class="cls-1" d="M13,22.05c0-5.79.16-11.6,0-17.39C12.93.5,14.76-.49,18.58.2c16.76,3.06,31,10.07,40.41,25,.24.38.81.55,1.23.81Q60.11,56.17,60,86.35c0,1.91.68,4.3-1.8,5.2C56,92.36,55,90.2,53.81,89A59.91,59.91,0,0,0,19.17,70.83c-4.27-.65-6.27-2.74-6.2-7.36C13.18,49.66,13,35.86,13,22.05ZM35.09,51.29c0-4.68-3.75-9.2-7.41-8.74-2.75.35-1.36,2.85-1.43,4.34-.21,4.81,3.55,9.19,7.46,8.58C36.43,55,34.37,52.43,35.09,51.29Zm17-13.78a6.19,6.19,0,0,0-1-1.73c-6.95-6-14.46-11.08-23.51-13.42a1.59,1.59,0,0,0-2,.95c-.42,1.06.4,1.5,1.17,1.8,2.62,1,5.31,1.89,7.88,3a46.43,46.43,0,0,1,13.86,9.5c.71.7,1.5,1.44,2.6,1C51.49,38.49,51.73,38,52.11,37.51Zm-24-5.5c-1.59,0-2.54,0-2.61,1.13-.06.94.72,1.42,1.55,1.66,8.42,2.5,15.62,7.1,22.17,12.84.73.64,1.63,1.53,2.47.34.68-1-.07-1.9-.81-2.59A57.84,57.84,0,0,0,37.54,36C34.32,34.35,30.87,33.15,28.15,32Zm23.11-2.72c.16-.39.58-.9.47-1.27A5.29,5.29,0,0,0,50.64,26,37.76,37.76,0,0,0,37.82,16.8c-.85-.38-1.9-1.24-2.54,0-.56,1.08.36,1.76,1.29,2.28a53.59,53.59,0,0,1,12.38,9A10.58,10.58,0,0,0,51.26,29.29ZM42.18,48.7a5.3,5.3,0,0,0-1.52.93c-.18.21,0,1,.32,1.28,2.86,2.27,5.74,4.5,8.69,6.64.39.28,1.23.09,1.8-.09a1.44,1.44,0,0,0,.09-1.26A24.48,24.48,0,0,0,42.18,48.7ZM51.8,66.89c.11-1.71-8.58-9.11-9.93-8.54s-1,1.72-.27,2.4q3.87,3.47,8,6.67C50.38,68.06,51.43,68.15,51.8,66.89Z"/><path class="cls-1" d="M113.17,23.92c5.58.61,7.1,3.76,7,9.2-.36,21.07-.27,42.15-.35,63.22-4.37-1.48-8.69-3.16-13.13-4.41-13.73-3.84-27.2-1.19-40.61,2q0-34.57,0-69.14c1.63-1.69,3.69-1.95,5.88-1.83.42,4.34.75,8.64-2.66,12.18-1,1-1.33,3,0,3.48,5.76,2,4.67,7.17,5.72,11.42.85,3.41,3,4.57,6.38,3.08,2.07-.9,3.87-2.55,6.63-2.59,0,4.25,0,8.38,0,12.51,0,3.37,1.49,3.76,4,2.11,2.22-1.45,4.24-3.3,6.6-4.47,6.59-3.25,9.56-8.14,8.18-15.57a8.84,8.84,0,0,1,1.5-6.66C111.32,34,112.5,29.06,113.17,23.92Z"/><path class="cls-2" d="M66.1,24.75q0,34.57,0,69.14c-3.64,2.55-7.39,2.23-11.39.82A77.42,77.42,0,0,0,24.88,90c-8.55.43-16.54,3.25-24.51,6.1Q.24,62.92.07,29.75a4.51,4.51,0,0,1,3.48-4.81C6.71,24,9.87,23,13,22.05c0,13.81.14,27.61-.07,41.42-.07,4.62,1.93,6.71,6.2,7.36A59.91,59.91,0,0,1,53.81,89C55,90.2,56,92.36,58.21,91.55c2.48-.9,1.79-3.29,1.8-5.2q.14-30.18.21-60.36Z"/><path class="cls-3" d="M113.17,23.92c-.67,5.14-1.85,10.12-4.82,14.49a8.84,8.84,0,0,0-1.5,6.66c1.38,7.43-1.59,12.32-8.18,15.57-2.36,1.17-4.38,3-6.6,4.47-2.53,1.65-4,1.26-4-2.11,0-4.13,0-8.26,0-12.51-2.76,0-4.56,1.69-6.63,2.59C78,54.57,75.9,53.41,75.05,50c-1-4.25,0-9.39-5.72-11.42-1.34-.47-1-2.43,0-3.48,3.41-3.54,3.08-7.84,2.66-12.18.76-8.22,3.69-15.16,11.41-19.24C96.05-3,111.61,5.53,113,19.94,113.13,21.26,113.12,22.59,113.17,23.92Zm-7-2c-.45-2.48-2.11-3.86-4.54-2.73-3.34,1.55-4.24.27-4.25-2.77,0-1.54-.45-2.56-2.24-2.54-4,0-8,0-12,0-3,0-2.35,2.24-2.2,3.95.18,2.1,1.37,2.31,3.15,1.45,1.59-.77,3.29-.82,4.49.79a3.15,3.15,0,0,1,.13,3.75,3.16,3.16,0,0,1-4.32,1.29c-1.82-.84-3.29-.85-3.51,1.64-.15,1.73-.19,3.38,2.31,3.47,3.2.11,4.68,1.26,2.9,4.69a2.7,2.7,0,0,0,1.45,3.77c1.27.6,3.7.25,3.54-.45-1.28-5.72,4.15-7.31,6.06-10.94,1.2-2.27,1.24-3.8,4.26-2.47C103.69,25.81,105.62,24.94,106.13,21.88Z"/><path class="cls-4" d="M.37,96.08c8-2.85,16-5.67,24.51-6.1a77.42,77.42,0,0,1,29.81,4.73c4,1.41,7.75,1.73,11.39-.82,13.41-3.15,26.88-5.8,40.61-2,4.44,1.25,8.76,2.93,13.13,4.41,1,11.29,1,11.13-9.69,9.13-15.38-2.89-30.76-3-46,1.08-5.52,1.47-10.49-.83-15.67-1.67a113.89,113.89,0,0,0-48.1,2.75A44.66,44.66,0,0,1,.37,96.08Z"/><path class="cls-5" d="M35.09,51.29c-.72,1.14,1.34,3.75-1.38,4.18-3.91.61-7.67-3.77-7.46-8.58.07-1.49-1.32-4,1.43-4.34C31.34,42.09,35.1,46.61,35.09,51.29Z"/><path class="cls-5" d="M52.11,37.51c-.38.45-.62,1-1,1.13-1.1.43-1.89-.31-2.6-1a46.43,46.43,0,0,0-13.86-9.5c-2.57-1.13-5.26-2-7.88-3-.77-.3-1.59-.74-1.17-1.8a1.59,1.59,0,0,1,2-.95c9,2.34,16.56,7.41,23.51,13.42A6.19,6.19,0,0,1,52.11,37.51Z"/><path class="cls-5" d="M28.15,32c2.72,1.14,6.17,2.34,9.39,4a57.84,57.84,0,0,1,13.38,9.39c.74.69,1.49,1.61.81,2.59-.84,1.19-1.74.3-2.47-.34C42.71,41.9,35.51,37.3,27.09,34.8c-.83-.24-1.61-.72-1.55-1.66C25.61,32,26.56,32.05,28.15,32Z"/><path class="cls-5" d="M51.26,29.29A10.58,10.58,0,0,1,49,28.09a53.59,53.59,0,0,0-12.38-9c-.93-.52-1.85-1.2-1.29-2.28.64-1.27,1.69-.41,2.54,0A37.76,37.76,0,0,1,50.64,26,5.29,5.29,0,0,1,51.73,28C51.84,28.39,51.42,28.9,51.26,29.29Z"/><path class="cls-5" d="M42.18,48.7a24.48,24.48,0,0,1,9.38,7.5,1.44,1.44,0,0,1-.09,1.26c-.57.18-1.41.37-1.8.09-3-2.14-5.83-4.37-8.69-6.64-.29-.23-.5-1.07-.32-1.28A5.3,5.3,0,0,1,42.18,48.7Z"/><path class="cls-5" d="M51.8,66.89c-.37,1.26-1.42,1.17-2.24.53q-4.08-3.21-8-6.67c-.77-.68-1-1.85.27-2.4S51.91,65.18,51.8,66.89Z"/><path class="cls-6" d="M106.13,21.88c-.51,3.06-2.44,3.93-4.75,2.92-3-1.33-3.06.2-4.26,2.47-1.91,3.63-7.34,5.22-6.06,10.94.16.7-2.27,1-3.54.45a2.7,2.7,0,0,1-1.45-3.77c1.78-3.43.3-4.58-2.9-4.69-2.5-.09-2.46-1.74-2.31-3.47.22-2.49,1.69-2.48,3.51-1.64a3.16,3.16,0,0,0,4.32-1.29,3.15,3.15,0,0,0-.13-3.75c-1.2-1.61-2.9-1.56-4.49-.79-1.78.86-3,.65-3.15-1.45-.15-1.71-.77-3.93,2.2-3.95,4,0,8,0,12,0,1.79,0,2.23,1,2.24,2.54,0,3,.91,4.32,4.25,2.77C104,18,105.68,19.4,106.13,21.88Z"/></g></g></svg>