<svg xmlns="http://www.w3.org/2000/svg" viewBox="0 0 120.24 107.65"><defs><style>.cls-1{fill:#f5fafe;}.cls-2{fill:#a6b5dc;}.cls-3{fill:#6670a2;}.cls-4{fill:#5a5869;}.cls-5{fill:#ec658d;}.cls-6{fill:#adbbdf;}</style></defs><g id="Layer_2" data-name="Layer 2"><g id="Layer_1-2" data-name="Layer 1"><path class="cls-1" d="M107.88,20.55c1.67,3.36,5.31,3,8.12,4.12s4.09,2.46,4.08,5.41q-.18,33.12-.26,66.25c-12.26-5.17-24.9-7.76-38.22-5.5-5.2.88-10.35,2-15.52,3l0-69.14C72.79,21.12,80.25,20.9,87.53,20a75.68,75.68,0,0,1,8.92-.17c3.94,4.55-1.16,8-1.42,12.1l0-.06-.8,1c-2.72,0-3,6.55-7.41,2.52-4.63-4.24-10.06-4.72-13.47-1.77s-3.35,9,.29,14.1a50,50,0,0,0,9.12,9.14c-2,2-.39,7.17-5.65,6.35a4,4,0,0,0-.84,2.12c-.1,2.59,0,5.19,0,7.85,4.18-2.33,8.33-5.87,7.78-6.4-3.42-3.31.32-5.43,1.1-8,1.86.22,3.19,2.62,5.49,1.15,6.06-3.89,11.83-8.15,15.22-14.69,3.86-7.45.43-13-8-13.43,1.23-3.84,2.6-7.46,7.28-8.48C106.18,23,107,21.48,107.88,20.55Z"/><path class="cls-1" d="M13,22c0-5.8.16-11.6,0-17.4C12.93.47,14.78-.47,18.6.19c16.84,2.93,31,10.13,40.39,25,.24.38.81.55,1.23.81Q60.13,56.16,60,86.35c0,1.9.68,4.29-1.8,5.19C56,92.35,55,90.19,53.81,89A59.91,59.91,0,0,0,19.17,70.82c-4.26-.65-6.27-2.74-6.2-7.37C13.19,49.65,13,35.85,13,22Zm22.06,29c0-4.65-3.21-8.66-7.16-8.45-3.48.19-1.54,3.3-1.65,5a7,7,0,0,0,7.18,7.77C36.76,55.21,34.18,52.2,35.1,51.08ZM52,37.36a4.5,4.5,0,0,0-.7-1.37c-7-6.23-14.67-11.35-23.92-13.67a1.48,1.48,0,0,0-1.89,1.17c-.22,1,.63,1.45,1.43,1.7a52,52,0,0,1,22.1,12.9,1.84,1.84,0,0,0,2.26.47C51.66,38.36,51.79,37.78,52,37.36ZM27.93,32c-1.37,0-2.13,0-2.32.77-.33,1.3.68,1.73,1.64,2A59.58,59.58,0,0,1,49,47.4c.71.62,1.51,1.74,2.49.8,1.18-1.13.12-2.18-.71-2.93A59.23,59.23,0,0,0,35.17,34.84C32.61,33.7,29.94,32.81,27.93,32Zm23.9-4.22a3.19,3.19,0,0,0-.36-.95A38.5,38.5,0,0,0,36.71,16.3c-.7-.29-1.43-.09-1.47.72a2.06,2.06,0,0,0,.69,1.65,69.14,69.14,0,0,1,13.62,9.8A1.3,1.3,0,0,0,51.83,27.82Zm0,29c0-2.16-8.59-8.6-10.37-7.88-1.48.61-1,1.56-.16,2.24,2.73,2.16,5.49,4.28,8.33,6.31C50.47,58.14,51.51,58.18,51.8,56.85Zm0,9.88c0-1.41-8.09-8.57-9.55-8.43s-1.66,1.37-.88,2.08c2.79,2.55,5.72,4.95,8.71,7.25C50.79,68.16,51.68,67.71,51.82,66.73Z"/><path class="cls-2" d="M13,22c0,13.81.15,27.61-.07,41.41-.07,4.63,1.94,6.72,6.2,7.37A59.91,59.91,0,0,1,53.81,89c1.19,1.22,2.18,3.38,4.4,2.57,2.48-.9,1.79-3.29,1.8-5.19q.14-30.19.21-60.37l5.88-1.24q0,34.58,0,69.14c-3.64,2.55-7.39,2.23-11.39.82A77.42,77.42,0,0,0,24.88,90c-8.55.43-16.54,3.25-24.5,6.1Q.23,62.9.08,29.74a4.5,4.5,0,0,1,3.47-4.82C6.71,24,9.88,23,13,22Z"/><path class="cls-3" d="M.38,96.07c8-2.85,15.95-5.67,24.5-6.1A77.42,77.42,0,0,1,54.69,94.7c4,1.41,7.75,1.73,11.39-.82,5.17-1,10.32-2.17,15.52-3,13.32-2.26,26,.33,38.22,5.5,1,11.3,1,11.13-9.68,9.13-15.38-2.89-30.77-3-46,1.08-5.52,1.47-10.49-.83-15.67-1.67a112.94,112.94,0,0,0-48.1,2.78A44,44,0,0,1,.38,96.07Z"/><path class="cls-4" d="M95,31.9c.26-4.06,5.36-7.55,1.42-12.1,0-3.59,1.72-6.48,4.13-10.07,1.17,6,4.82,6.37,9.57,4.71-.92,2.49-1.6,4.3-2.27,6.11-.91.93-1.7,2.47-2.77,2.7-4.68,1-6,4.64-7.28,8.48Z"/><path class="cls-5" d="M95,31.9l2.8-.17c8.47.44,11.9,6,8,13.43C102.48,51.7,96.71,56,90.65,59.85c-2.3,1.47-3.63-.93-5.49-1.15a17.75,17.75,0,0,0,.91-2.28c.46-1.76,3.09-4.08,1.09-5.11-2.49-1.28-2.24,2.42-3.43,3.74a8.07,8.07,0,0,0-.92,1.75,50,50,0,0,1-9.12-9.14C70.05,42.6,70,36.51,73.4,33.56s8.84-2.47,13.47,1.77c4.4,4,4.69-2.49,7.41-2.52.45-.17,1-.28.8-1Z"/><path class="cls-4" d="M82.81,56.8a8.07,8.07,0,0,1,.92-1.75c1.19-1.32.94-5,3.43-3.74,2,1-.63,3.35-1.09,5.11a17.75,17.75,0,0,1-.91,2.28c-.78,2.59-4.52,4.71-1.1,8,.55.53-3.6,4.07-7.78,6.4,0-2.66-.06-5.26,0-7.85a4,4,0,0,1,.84-2.12C82.42,64,80.82,58.78,82.81,56.8Z"/><path class="cls-4" d="M95.08,31.84c.18.69-.35.8-.8,1Z"/><path class="cls-6" d="M35.1,51.08c-.92,1.12,1.66,4.13-1.63,4.3a7,7,0,0,1-7.18-7.77c.11-1.68-1.83-4.79,1.65-5C31.89,42.42,35.09,46.43,35.1,51.08Z"/><path class="cls-6" d="M52,37.36c-.24.42-.37,1-.72,1.2a1.84,1.84,0,0,1-2.26-.47A52,52,0,0,0,27,25.19c-.8-.25-1.65-.7-1.43-1.7a1.48,1.48,0,0,1,1.89-1.17C36.66,24.64,44.32,29.76,51.33,36A4.5,4.5,0,0,1,52,37.36Z"/><path class="cls-6" d="M27.93,32c2,.77,4.68,1.66,7.24,2.8A59.23,59.23,0,0,1,50.8,45.27c.83.75,1.89,1.8.71,2.93-1,.94-1.78-.18-2.49-.8A59.58,59.58,0,0,0,27.25,34.83c-1-.29-2-.72-1.64-2C25.8,32.07,26.56,32,27.93,32Z"/><path class="cls-6" d="M51.83,27.82a1.3,1.3,0,0,1-2.28.65,69.14,69.14,0,0,0-13.62-9.8A2.06,2.06,0,0,1,35.24,17c0-.81.77-1,1.47-.72A38.5,38.5,0,0,1,51.47,26.87,3.19,3.19,0,0,1,51.83,27.82Z"/><path class="cls-6" d="M51.8,56.85c-.29,1.33-1.33,1.29-2.2.67-2.84-2-5.6-4.15-8.33-6.31-.86-.68-1.32-1.63.16-2.24C43.21,48.25,51.81,54.69,51.8,56.85Z"/><path class="cls-6" d="M51.82,66.73c-.14,1-1,1.43-1.72.9-3-2.3-5.92-4.7-8.71-7.25-.78-.71-.55-1.94.88-2.08S51.83,65.32,51.82,66.73Z"/></g></g></svg>