<svg xmlns="http://www.w3.org/2000/svg" viewBox="0 0 120.2 119.7"><defs><style>.cls-1{fill:#f5fafe;}.cls-2{fill:#a6b5dc;}.cls-3{fill:#6670a2;}.cls-4{fill:#adbbdf;}.cls-5{fill:#ec658d;}</style></defs><g id="Layer_2" data-name="Layer 2"><g id="Layer_1-2" data-name="Layer 1"><path class="cls-1" d="M13,34.12c0-5.79.16-11.59,0-17.38-.11-4.16,1.7-5.17,5.53-4.47,16.75,3.06,31,10.05,40.4,25,.24.38.81.54,1.23.81q-.09,30.18-.2,60.37c0,1.9.69,4.29-1.79,5.2-2.22.81-3.21-1.34-4.4-2.57A59.91,59.91,0,0,0,19.17,82.9c-4.26-.65-6.28-2.73-6.2-7.36C13.18,61.74,13,47.93,13,34.12Zm22.06,29c0-4.44-3.84-8.94-7.38-8.44-3.09.45-1.31,3.24-1.43,4.87-.3,4,3.39,8.2,7.19,8C36.78,67.23,34.16,64.21,35.09,63.07ZM52,49.62c-.57-2.24-2.47-3.08-4-4.31C42.32,40.7,36.2,36.82,29,34.88c-1.23-.33-2.83-1.32-3.36.53-.59,2,1.64,1.6,2.65,2.12,1.76.89,3.69,1.43,5.5,2.26,5.31,2.42,10.32,5.3,14.38,9.6.78.83,1.62,1.81,3,1.3C51.53,50.55,51.74,50,52,49.62Zm.07,9.6A8.46,8.46,0,0,0,51,57.57,57.74,57.74,0,0,0,28,44.22c-.91-.27-2.16-.5-2.43.84s.88,1.58,1.84,1.91c5.34,1.85,10.57,4,15.14,7.35,2.39,1.77,4.62,3.77,7,5.6a3,3,0,0,0,1.77.53C51.57,60.44,51.8,59.72,52.11,59.22ZM37.27,28.34c-1.21-.34-1.9-.08-2,.64-.07.55.18,1.5.57,1.7a60,60,0,0,1,13.65,9.84,2.12,2.12,0,0,0,1.82.13c.81-.32.59-1.15.17-1.66C47.52,34.13,42.29,31,37.27,28.34ZM52,78.55c0-1.5-8.87-8.66-10.08-8.14s-1,1.7-.29,2.38c2.55,2.3,5.18,4.52,7.9,6.63C50.52,80.23,51.68,80.18,52,78.55ZM40,61.63c3.45,2.87,6.52,5.48,9.68,8,.37.29,1.23.1,1.79-.09.19-.07.28-.88.16-1.27C50.83,65.52,43.8,61.26,40,61.63Z"/><path class="cls-1" d="M65.93,36.07C82.49,31.29,99,30,115.48,36.59c2.75,1.11,4.62,2.24,4.6,5.54q-.18,33.12-.24,66.24c-4-1.47-8-3.19-12.1-4.36-14-4-27.86-1.83-41.59,1.82ZM83.08,73c1.83.79,2.27,2.78,3.5,4.09.75.8,1.07,2.14,2.7,1.43,2.84-1.25,6.76,0,8.65-4-2.33,5.2,3.09,10-.47,15.25,4.33,0,8,0,11.63,0,1,0,2.15.15,2.64-.93a2,2,0,0,0-1.06-2.54c-7.76-3.29-1.52-8.28-1.38-12.41.06-1.87,2.85-3.07,3.21-6-4.1,3.14-6.59,1.13-8.94-2a5,5,0,0,0-3-1.63c-2.63-.38-2.65-1.85-2.26-3.93.72-3.81,2.12-7.55,1.59-12.75l-5.62,9.29c-.9,1.5-1.28,3.54-3.85,3.09-2.27-.39-4-1.18-4.86-3.6-.72-2-.93-4.43-3.35-5.92-1.7,4.14,1.51,8.29-1.69,12.13-4.3,5.17-7.53-.07-12-1C70,63.61,70.87,65,71.86,66.27c2.09,2.7,4.81,5.16,0,8.06-1.65,1-2.26,3.52-1.65,5.48.92,3,1.57,5.49-1.79,7.35-.68.38-1.07,1.69-.07,2,3.38,1.12,7,.85,10.35.29,3-.49.24-3,.68-4.52.28-.95.38-2.42,1-2.72C84.87,80.12,83,76.34,83,73ZM80.76,39c-1.23-.1-2.75.05-2.7,2.5,0,2.06,1.23,2.51,2.91,2.36s3.64-.35,3.81-2.37C85,39.28,83.1,39,80.76,39Zm31.41,18.8c0-1.72-.71-2.8-2.62-2.79a2.28,2.28,0,0,0-2.6,2.3c-.15,1.74.57,3,2.36,3.07C111,60.45,112.17,59.71,112.17,57.78Z"/><path class="cls-2" d="M65.93,36.07q.1,34.87.22,69.76a11.53,11.53,0,0,1-10.39,1c-18.6-6.74-37.12-7.11-55.41,1.25Q.22,75,.07,41.82A4.52,4.52,0,0,1,3.55,37c3.16-1,6.32-1.92,9.49-2.88,0,13.81.14,27.62-.07,41.42-.08,4.63,1.94,6.71,6.2,7.36a59.91,59.91,0,0,1,34.64,18.15c1.19,1.23,2.18,3.38,4.4,2.57,2.48-.91,1.79-3.3,1.79-5.2q.14-30.19.2-60.37Z"/><path class="cls-3" d="M.35,108.13c18.29-8.36,36.81-8,55.41-1.25a11.53,11.53,0,0,0,10.39-1c13.73-3.65,27.56-5.78,41.59-1.82,4.11,1.17,8.07,2.89,12.1,4.36.89,11.32.92,11.16-9.68,9.17-15.39-2.89-30.78-3-46,1.08-5.52,1.46-10.49-.83-15.67-1.67A113.77,113.77,0,0,0,.37,119.7,46.67,46.67,0,0,1,.35,108.13Z"/><path class="cls-2" d="M86,9.33c-6.32,2.68-10.4.87-13.1-4.25C72.3,4,70.67,2.75,71.66,1.65S75-.4,76.16.81c5.7,5.88,11.74.87,17.57.78,2.77,0,5.51-1,8.29-1.49a8,8,0,0,1,6.11,1.58c.94.69,1.93,1.52,1.78,2.81-.17,1.59-1.6,1.35-2.71,1.52-2.12.33-4.24.7-6.36,1-3.88.58-7.45,1.58-9.28,5.61a9.31,9.31,0,0,1-1.91,2.28c-1.59,1.68-3.85,3-5.72,1.69-2.18-1.57.84-3,1.17-4.57C85.2,11.56,85.4,11.11,86,9.33Z"/><path class="cls-4" d="M99.67,20c1.71.1,3.43.59,3.12,2.74-.33,2.36-2.43,2.19-4.24,2.22S96,24,96.07,22.17C96.19,19.64,98,20.06,99.67,20Z"/><path class="cls-4" d="M35.09,63.07c-.93,1.14,1.69,4.16-1.62,4.38-3.8.25-7.49-3.91-7.19-8,.12-1.63-1.66-4.42,1.43-4.87C31.25,54.13,35.08,58.63,35.09,63.07Z"/><path class="cls-4" d="M52,49.62c-.3.37-.51.93-.88,1.07-1.35.51-2.19-.47-3-1.3-4.06-4.3-9.07-7.18-14.38-9.6-1.81-.83-3.74-1.37-5.5-2.26-1-.52-3.24-.1-2.65-2.12.53-1.85,2.13-.86,3.36-.53,7.18,1.94,13.3,5.82,19,10.43C49.57,46.54,51.47,47.38,52,49.62Z"/><path class="cls-4" d="M52.11,59.22c-.31.5-.54,1.22-.8,1.23a3,3,0,0,1-1.77-.53c-2.35-1.83-4.58-3.83-7-5.6-4.57-3.4-9.8-5.5-15.14-7.35-1-.33-2.09-.67-1.84-1.91S27.11,44,28,44.22A57.74,57.74,0,0,1,51,57.57,8.46,8.46,0,0,1,52.11,59.22Z"/><path class="cls-4" d="M37.27,28.34C42.29,31,47.52,34.13,51.48,39c.42.51.64,1.34-.17,1.66a2.12,2.12,0,0,1-1.82-.13,60,60,0,0,0-13.65-9.84c-.39-.2-.64-1.15-.57-1.7C35.37,28.26,36.06,28,37.27,28.34Z"/><path class="cls-4" d="M52,78.55c-.27,1.63-1.43,1.68-2.47.87-2.72-2.11-5.35-4.33-7.9-6.63-.75-.68-1-1.84.29-2.38S52,77.05,52,78.55Z"/><path class="cls-4" d="M40,61.63c3.81-.37,10.84,3.89,11.63,6.63.12.39,0,1.2-.16,1.27-.56.19-1.42.38-1.79.09C46.51,67.11,43.44,64.5,40,61.63Z"/><path class="cls-5" d="M83,73c0,3.32,1.86,7.1-2.64,9.22-.63.3-.73,1.77-1,2.72-.44,1.52,2.29,4-.68,4.52-3.36.56-7,.83-10.35-.29-1-.34-.61-1.65.07-2,3.36-1.86,2.71-4.4,1.79-7.35-.61-2,0-4.49,1.65-5.48,4.83-2.9,2.11-5.36,0-8.06-1-1.29-1.88-2.66-3.33-4.73,4.46.88,7.69,6.12,12,1,3.2-3.84,0-8,1.69-12.13,2.42,1.49,2.63,3.93,3.35,5.92.88,2.42,2.59,3.21,4.86,3.6,2.57.45,3-1.59,3.85-3.09l5.62-9.29c.53,5.2-.87,8.94-1.59,12.75-.39,2.08-.37,3.55,2.26,3.93a5,5,0,0,1,3,1.63c2.35,3.09,4.84,5.1,8.94,2-.36,3-3.15,4.18-3.21,6-.14,4.13-6.38,9.12,1.38,12.41a2,2,0,0,1,1.06,2.54c-.49,1.08-1.66.93-2.64.93-3.65,0-7.3,0-11.63,0,3.56-5.26-1.86-10,.47-15.25-1.89,4-5.81,2.76-8.65,4-1.63.71-2-.63-2.7-1.43-1.23-1.31-1.67-3.3-3.5-4.09-.17-.24-.18-1-.66-.21Z"/><path class="cls-4" d="M80.76,39c2.34,0,4.2.3,4,2.49-.17,2-2.15,2.22-3.81,2.37s-2.87-.3-2.91-2.36C78,39,79.53,38.88,80.76,39Z"/><path class="cls-5" d="M112.17,57.78c0,1.93-1.22,2.67-2.86,2.58-1.79-.09-2.51-1.33-2.36-3.07a2.28,2.28,0,0,1,2.6-2.3C111.46,55,112.14,56.06,112.17,57.78Z"/><path class="cls-1" d="M83,73l-.59-.28c.48-.75.49,0,.66.21Z"/></g></g></svg>