<svg xmlns="http://www.w3.org/2000/svg" viewBox="0 0 120.48 119.89"><defs><style>.cls-1{fill:#f5fafe;}.cls-2{fill:#a6b5dc;}.cls-3{fill:#6670a2;}.cls-4{fill:#5a5869;}.cls-5{fill:#efae99;}.cls-6{fill:#adbbdf;}.cls-7{fill:#ec658d;}.cls-8{fill:#ce436e;}.cls-9{fill:#e28785;}</style></defs><g id="Layer_2" data-name="Layer 2"><g id="Layer_1-2" data-name="Layer 1"><path class="cls-1" d="M13.1,34.3c0-5.47.21-10.94,0-16.4-.13-3.74,1.44-5.22,5-4.81,11.26,1.3,21.55,5.05,30.08,12.66,3.55,3.17,7.22,6.34,9.76,10.52a3.94,3.94,0,0,0,3.34,1.88c-1.52,1.67-1.19,3.73-1.19,5.7q0,27.46,0,54.94c0,1.78.53,3.94-1.53,4.91s-3.28-1-4.49-2.28A60.7,60.7,0,0,0,18.91,83.13c-4.3-.65-5.91-2.49-5.84-6.88C13.26,62.27,13.12,48.28,13.1,34.3ZM34.67,68.2c1.43-8.51.39-10.79-5.14-12.54-2.65-.84-3.12.06-3.29,2.42C25.78,64.68,26.35,65.46,34.67,68.2Zm17.4-8.72c-.44-1.84-2-2.31-3.13-3.27A50.77,50.77,0,0,0,28.76,44.87c-1.14-.31-2.41-.9-3,.55-.67,1.66,1,1.84,1.95,2.23,2.14.88,4.39,1.49,6.51,2.4a47.61,47.61,0,0,1,14.34,9.68c.82.8,1.72,1.73,3,.87C51.88,60.38,51.94,59.78,52.07,59.48ZM28.87,35.17c-2.19-.19-3,0-3.17.71A1.48,1.48,0,0,0,27,37.71c8.61,2.15,15.74,6.87,22.25,12.7a1.67,1.67,0,0,0,2.25.32c.93-.73.32-1.52-.24-2.1A52.2,52.2,0,0,0,28.87,35.17Zm7.73-6.69c-.74,0-1.28.24-1.37,1a2,2,0,0,0,1.16,2A56.05,56.05,0,0,1,49.66,41a2.16,2.16,0,0,0,1.75.53c.67-.18.73-1,.56-1.67C51.43,37.67,38.94,28.46,36.6,28.48Zm15.47,51c0-2.3-8.42-9-10.38-8.39s-1.21,1.7-.12,2.42a46.25,46.25,0,0,1,8.09,6.39,2.6,2.6,0,0,0,1.75.54C51.67,80.46,51.91,79.76,52.07,79.51Zm0-10.22c-.25-2.1-8.56-8.55-10.38-8.09-1.49.37-1.34,1.38-.43,2.14,2.94,2.43,5.92,4.83,9,7.07C51.32,71.22,52.08,70.56,52,69.29Z"/><path class="cls-1" d="M66.17,37.06c4.31-2.77,9.43-2.65,14.17-3.92,1.11-.3,2.33-.16,3-1.38l2.09.34c0,1.31,0,2.62,0,3.92-.94,1.89-2.65,3-4.17,4.37a3.14,3.14,0,0,0-3.92,1.06c-9.73,10.89-9.25,34,.79,45.19,3.37,3.75,6.59,5.86,11.14,2,2.33,3.44,4.77,3,7.68.56A26,26,0,0,0,106.2,74c3.16-11.44,1.3-22-5.4-31.8-1.12-1.63-2.55-2.62-4.6-1.44A3.48,3.48,0,0,0,93,38.09l-.5-5.19,1.65-2,2-.11c.72,1.86,2.2,2.3,4,2.26,4.06-.12,7.86,1.3,11.63,2.42,7.73,2.31,8.45,3.59,8.45,11.67q0,30.95,0,61.89a73.07,73.07,0,0,0-21.47-6.17c-11.15-1.3-21.84,1-32.56,3.47Z"/><path class="cls-2" d="M66.17,37.06q0,34.65,0,69.31c-4.22,3-8.45,1.63-12.8.25-18-5.73-35.73-6.13-53.06,2.46,0-22,0-43.92-.14-65.89,0-3.18,1.13-5,4-6s6-1.93,9-2.88c0,14,.16,28,0,42-.07,4.39,1.54,6.23,5.84,6.88a60.7,60.7,0,0,1,35.18,18.29c1.21,1.24,2.28,3.33,4.49,2.28s1.53-3.13,1.53-4.91q0-27.47,0-54.94c0-2-.33-4,1.19-5.7Z"/><path class="cls-3" d="M.26,109.08c17.33-8.59,35.09-8.19,53.06-2.46,4.35,1.38,8.58,2.72,12.8-.25,10.71-2.42,21.4-4.77,32.55-3.47a73.07,73.07,0,0,1,21.47,6.17c-.09,3.48,1.15,8.24-.63,10.09-2,2.08-6.33-.87-9.68-1.44C94.21,115,78.72,115,63.35,119.19a11.59,11.59,0,0,1-6.37.09c-17.4-4.8-34.87-4.49-52.27-.16-3.81.95-5.12.47-4.6-3.56A58.19,58.19,0,0,0,.26,109.08Z"/><path class="cls-4" d="M96.07,30.83l-2,.11c1.22-4.72,3.05-9.55-2.45-13,.16-2,.39-4,.47-6,.1-2.23-.48-4-3.23-4s-3.33,1.91-3.29,4a56,56,0,0,0,.7,5.89c-6,3.27-2.85,8.59-3,13.18-9.16-1.66-8.46-11.4-4.44-16.95A8.22,8.22,0,0,0,80.81,8c-.37-4.32,3.46-7.84,7.77-8,4.55-.17,8.58,3.2,8.42,7.83a10.59,10.59,0,0,0,2.21,6.7C103.64,21.23,102.39,27.28,96.07,30.83Z"/><path class="cls-5" d="M91.65,18c5.5,3.44,3.67,8.27,2.45,13l-1.65,2c-2.4.17-4.84.8-7-.8l-2.1-.34a1.58,1.58,0,0,1,0-.65c.14-4.59-3-9.91,3-13.17Z"/><path class="cls-6" d="M34.67,68.2c-8.32-2.74-8.89-3.52-8.43-10.12.17-2.36.64-3.26,3.29-2.42C35.06,57.41,36.1,59.69,34.67,68.2Z"/><path class="cls-6" d="M52.07,59.48c-.13.3-.19.9-.52,1.12-1.27.86-2.17-.07-3-.87a47.61,47.61,0,0,0-14.34-9.68c-2.12-.91-4.37-1.52-6.51-2.4-.94-.39-2.62-.57-1.95-2.23.59-1.45,1.86-.86,3-.55A50.77,50.77,0,0,1,48.94,56.21C50,57.17,51.63,57.64,52.07,59.48Z"/><path class="cls-6" d="M28.87,35.17A52.2,52.2,0,0,1,51.23,48.63c.56.58,1.17,1.37.24,2.1a1.67,1.67,0,0,1-2.25-.32C42.71,44.58,35.58,39.86,27,37.71a1.48,1.48,0,0,1-1.27-1.83C25.88,35.19,26.68,35,28.87,35.17Z"/><path class="cls-6" d="M36.6,28.48c2.34,0,14.83,9.19,15.37,11.33.17.69.11,1.49-.56,1.67A2.16,2.16,0,0,1,49.66,41a56.05,56.05,0,0,0-13.27-9.43,2,2,0,0,1-1.16-2C35.32,28.72,35.86,28.44,36.6,28.48Z"/><path class="cls-6" d="M52.07,79.51c-.16.25-.4.95-.66,1a2.6,2.6,0,0,1-1.75-.54,46.25,46.25,0,0,0-8.09-6.39c-1.09-.72-1.77-1.8.12-2.42S52.09,77.21,52.07,79.51Z"/><path class="cls-6" d="M52,69.29c0,1.27-.71,1.93-1.81,1.12-3.08-2.24-6.06-4.64-9-7.07-.91-.76-1.06-1.77.43-2.14C43.47,60.74,51.78,67.19,52,69.29Z"/><path class="cls-7" d="M89.24,88.68c-4.55,3.82-7.77,1.71-11.14-2-10-11.19-10.52-34.3-.79-45.19a3.14,3.14,0,0,1,3.92-1.06L87.3,47c-1.21,2-3.08,3.56-3.15,6.1l0,0-1,.9c-3.43.6-4.41,2.54-3.14,5.72.86,2.15,1.71,4.29,2.56,6.44a6.46,6.46,0,0,0,3.46,3.72c0,1.86,1.39,2.89,2.52,4.08,5.68,6,5.68,6,1.34,13A8.87,8.87,0,0,0,89.24,88.68Z"/><path class="cls-7" d="M96.2,40.77c2-1.18,3.48-.19,4.6,1.44,6.7,9.77,8.56,20.36,5.4,31.8-.19-1.32-.6-1.43-1.88-.79-5.75,2.88-6.69,2.39-8.27-3.89a3.87,3.87,0,0,0,1.18-3.25c3-9.87,1.31-12.2-8.53-12.19H84.21a7.56,7.56,0,0,0,0-.83l0,0A5.61,5.61,0,0,0,89,48.23,24.19,24.19,0,0,0,96.2,40.77Z"/><path class="cls-8" d="M96.05,69.33c1.58,6.28,2.52,6.77,8.27,3.89,1.28-.64,1.69-.53,1.88.79a26,26,0,0,1-9.28,15.23c-2.91,2.43-5.35,2.88-7.68-.56a8.87,8.87,0,0,1,.67-1.81c4.34-7,4.34-7-1.34-13-1.13-1.19-2.49-2.22-2.52-4.08Z"/><path class="cls-5" d="M96.2,40.77A24.19,24.19,0,0,1,89,48.23L87.3,47l-6.07-6.59c1.52-1.33,3.23-2.48,4.17-4.37L93,38.09A3.48,3.48,0,0,1,96.2,40.77Z"/><path class="cls-9" d="M93,38.09,85.4,36c0-1.3,0-2.61,0-3.92,2.2,1.6,4.64,1,7,.8C92.62,34.63,92.78,36.36,93,38.09Z"/><path class="cls-7" d="M91.65,18H86.3a56.46,56.46,0,0,1-.7-5.9c0-2.12.53-4,3.29-4s3.33,1.75,3.23,4C92,14,91.81,16,91.65,18Z"/><path class="cls-1" d="M84.21,53.89H88.7c9.84,0,11.48,2.32,8.53,12.19l-14.64,0c-.85-2.15-1.7-4.29-2.56-6.44-1.27-3.18-.29-5.12,3.14-5.72Z"/><path class="cls-2" d="M82.59,66.12l14.64,0a3.87,3.87,0,0,1-1.18,3.25l-10,.51A6.46,6.46,0,0,1,82.59,66.12Z"/><path class="cls-8" d="M87.3,47,89,48.23a5.61,5.61,0,0,1-4.88,4.85C84.22,50.54,86.09,48.93,87.3,47Z"/><path class="cls-8" d="M84.21,53.89l-1,.07,1-.9A7.56,7.56,0,0,1,84.21,53.89Z"/></g></g></svg>