<svg xmlns="http://www.w3.org/2000/svg" viewBox="0 0 31.93 31.93"><defs><style>.cls-1{fill:#ffb988;}.cls-2{fill:#fff;}</style></defs><g id="Layer_2" data-name="Layer 2"><g id="Layer_1-2" data-name="Layer 1"><rect class="cls-1" width="31.93" height="31.93" rx="5.49"/><path class="cls-2" d="M17,13.75A2.41,2.41,0,0,0,16,13.5,2.49,2.49,0,0,0,13.47,16h0A2.48,2.48,0,0,0,16,18.47h0A2.48,2.48,0,0,0,18.44,16a2.44,2.44,0,0,0-.25-1.07l2.12-2.11h2.48l2.71-2.7L23.07,8.88,21.84,6.45l-2.7,2.71v2.48Zm5.08-2.6H20.79V9.83l.61-.59.43.87.87.43Z"/><path class="cls-2" d="M17,13.75A2.41,2.41,0,0,0,16,13.5,2.49,2.49,0,0,0,13.47,16h0A2.48,2.48,0,0,0,16,18.47h0A2.48,2.48,0,0,0,18.44,16a2.44,2.44,0,0,0-.25-1.07l2.12-2.11h2.48l2.71-2.7L23.07,8.88,21.84,6.45l-2.7,2.71v2.48Z"/><path class="cls-2" d="M20.55,14.08A5,5,0,1,1,16,11a5,5,0,0,1,1.9.38l.19-.19V9.7a6.61,6.61,0,1,0,4.18,4.18H20.75Z"/><path class="cls-2" d="M23.78,13.33A8.25,8.25,0,1,1,16,7.71a8,8,0,0,1,2.64.45l1.28-1.28a9.92,9.92,0,1,0,5.17,5.18Z"/></g></g></svg>