<svg xmlns="http://www.w3.org/2000/svg" viewBox="0 0 2291.16 543.54"><defs><style>.cls-1{fill:#286f6c;}</style></defs><g id="Layer_2" data-name="Layer 2"><g id="Layer_1-2" data-name="Layer 1"><path class="cls-1" d="M289.19,457.6A30.45,30.45,0,0,1,300,462.8a45.19,45.19,0,0,1,8.35,7.64,44.43,44.43,0,1,1-56.26-9.73,22.25,22.25,0,0,1,8.82-3.24,61.18,61.18,0,0,1,8.67-.23c2.74.07,5.52-.05,8.28,0,3.08,0,6.2-.33,9.27.05A19.56,19.56,0,0,1,289.19,457.6Z"/><path class="cls-1" d="M273.45,0C122.43,0,0,122.43,0,273.45a273.11,273.11,0,0,0,116.31,223.8L240.49,252.48h67.68l122.51,244.7A273.11,273.11,0,0,0,546.89,273.45C546.89,122.43,424.47,0,273.45,0Z"/><path d="M846.43,298.6a62.49,62.49,0,0,1,13.78,39.88q0,20.31-10,35.71T821.41,398.3q-18.85,8.7-44.59,8.7H667.69V153.94H772.11q25.74,0,44.41,8.34t28.28,23.2a60.8,60.8,0,0,1,9.61,33.72q0,22.11-11.79,37t-31.36,21A56.86,56.86,0,0,1,846.43,298.6Zm-128-40.25h46.41q18.12,0,27.91-8.15t9.79-23.39q0-15.23-9.79-23.56t-27.91-8.34H718.45ZM798.39,357q10.33-8.7,10.33-24.66,0-16.31-10.87-25.56t-29.37-9.24h-50v68.16h51.12Q788.07,365.67,798.39,357Z"/><path d="M937.79,397.39A92.61,92.61,0,0,1,901.35,361q-13.23-23.55-13.23-54.38t13.59-54.38a94.56,94.56,0,0,1,37.17-36.44q23.55-12.85,52.57-12.87T1044,215.75a94.66,94.66,0,0,1,37.16,36.44q13.59,23.57,13.59,54.38t-14,54.38a96.56,96.56,0,0,1-37.7,36.44q-23.74,12.87-53.11,12.87Q961,410.26,937.79,397.39Zm78.13-38.07a48.69,48.69,0,0,0,19.39-20.12q7.26-13.41,7.26-32.63,0-28.63-15-44.05a49.47,49.47,0,0,0-36.8-15.41q-21.75,0-36.44,15.41T939.6,306.57q0,28.65,14.32,44.05T990,366A52.72,52.72,0,0,0,1015.92,359.32Z"/><path d="M1169.09,397.39A92.61,92.61,0,0,1,1132.65,361q-13.23-23.55-13.23-54.38T1133,252.19a94.56,94.56,0,0,1,37.17-36.44q23.55-12.85,52.57-12.87t52.57,12.87a94.66,94.66,0,0,1,37.16,36.44q13.59,23.57,13.59,54.38t-14,54.38a96.56,96.56,0,0,1-37.7,36.44q-23.75,12.87-53.12,12.87Q1192.3,410.26,1169.09,397.39Zm78.13-38.07a48.69,48.69,0,0,0,19.39-20.12q7.26-13.41,7.26-32.63,0-28.63-15-44.05a49.47,49.47,0,0,0-36.8-15.41q-21.75,0-36.44,15.41t-14.68,44.05q0,28.65,14.32,44.05T1221.29,366A52.73,52.73,0,0,0,1247.22,359.32Z"/><path d="M1482.32,407l-68.15-85.56V407h-50.76V138.71h50.76V291.35l67.43-85.2h66l-88.46,100.78L1548.31,407Z"/><path d="M1607.77,401.38q-19.59-8.88-31-24.11a61,61,0,0,1-12.51-33.72h51.12q1.44,11.61,11.42,19.22t24.83,7.61q14.5,0,22.66-5.8t8.16-14.86q0-9.8-10-14.69t-31.72-10.69q-22.48-5.44-36.8-11.24a63.69,63.69,0,0,1-24.65-17.77q-10.33-12-10.34-32.26a52.06,52.06,0,0,1,9.61-30.46q9.6-13.77,27.55-21.75t42.24-8q35.89,0,57.28,18t23.57,48.4h-48.58q-1.1-12-10-19t-23.75-7.07q-13.79,0-21.21,5.07a16.18,16.18,0,0,0-7.43,14.14q0,10.16,10.15,15.41t31.54,10.7a267.86,267.86,0,0,1,35.89,11.23,63.53,63.53,0,0,1,24.48,17.95q10.32,12.15,10.69,32.09a53.14,53.14,0,0,1-9.61,31.17q-9.6,13.78-27.55,21.58T1652,410.26Q1627.34,410.26,1607.77,401.38Z"/><path d="M1776.17,173.7a29.77,29.77,0,0,1,0-42.42q8.88-8.52,22.29-8.52t22.3,8.52a29.77,29.77,0,0,1,0,42.42q-8.88,8.52-22.3,8.52T1776.17,173.7Zm47.31,32.45V407h-50.76V206.15Z"/><path d="M1932.61,247.84V345q0,10.15,4.89,14.69t16.5,4.53h23.56V407h-31.9q-64.17,0-64.17-62.36v-96.8h-23.93V206.15h23.93V156.48h51.12v49.67h45v41.69Z"/><path d="M2199.44,321.8H2052.61q1.8,21.75,15.22,34.08t33,12.33q28.29,0,40.25-24.3h54.74a91.51,91.51,0,0,1-33.35,47.68q-24.66,18.68-60.55,18.67-29,0-52-12.87A90.48,90.48,0,0,1,2014,361q-12.87-23.55-12.87-54.38,0-31.17,12.69-54.74a88.66,88.66,0,0,1,35.53-36.26q22.85-12.67,52.57-12.69,28.64,0,51.3,12.33a86.81,86.81,0,0,1,35.17,35q12.51,22.65,12.51,52A120.58,120.58,0,0,1,2199.44,321.8Zm-51.12-34.08q-.37-19.58-14.14-31.36t-33.72-11.78q-18.86,0-31.72,11.42T2053,287.72Z"/><path d="M2237.68,401a29.77,29.77,0,0,1,0-42.42q8.88-8.52,22.66-8.52,13.41,0,22.12,8.52a30.2,30.2,0,0,1,0,42.42q-8.7,8.52-22.12,8.52Q2246.56,409.54,2237.68,401Z"/></g></g></svg>