<svg xmlns="http://www.w3.org/2000/svg" viewBox="0 0 31.93 31.93"><defs><style>.cls-1{fill:#9698b5;}.cls-2{fill:#fff;}</style></defs><g id="Layer_2" data-name="Layer 2"><g id="Layer_1-2" data-name="Layer 1"><rect class="cls-1" width="31.93" height="31.93" rx="5.49"/><path class="cls-2" d="M21.4,8.24a.68.68,0,0,0,.49-.2l1-1a.71.71,0,0,0,0-1,.7.7,0,0,0-.49-.2.72.72,0,0,0-.5.2l-1,1a.69.69,0,0,0,0,1A.68.68,0,0,0,21.4,8.24Z"/><path class="cls-2" d="M9.87,17.34a.7.7,0,0,0-.49.2l-1,1a.7.7,0,1,0,1,1l1-1a.71.71,0,0,0,0-1A.72.72,0,0,0,9.87,17.34Z"/><path class="cls-2" d="M22.64,17.54a.7.7,0,0,0-1,1l1,1a.71.71,0,0,0,.49.21.73.73,0,0,0,.5-.21.71.71,0,0,0,0-1Z"/><path class="cls-2" d="M21.63,16.41a6.47,6.47,0,1,0-11.16.06,34.49,34.49,0,0,1,2.07,3.36,2.29,2.29,0,0,1,.24,1v3.47a1.62,1.62,0,0,0,1,1.65,12,12,0,0,0,4.5,0,1.65,1.65,0,0,0,1-1.65V20.84a2.26,2.26,0,0,1,.23-1A34.05,34.05,0,0,1,21.63,16.41ZM17.7,24.33a.27.27,0,0,1-.27.28h-2.8a.27.27,0,0,1-.27-.28v-.41H16a.79.79,0,1,0,0-1.58H14.36v-.69H17.7Zm.38-5.15a4.32,4.32,0,0,0-.3.9H14.27a3.33,3.33,0,0,0-.32-.95,34.71,34.71,0,0,0-2.15-3.51,4.89,4.89,0,1,1,8.46-4.89,4.77,4.77,0,0,1,0,4.83A38.27,38.27,0,0,0,18.08,19.18Z"/><path class="cls-2" d="M9,12.85a.7.7,0,0,0-.7-.7H6.88a.7.7,0,0,0-.7.7.71.71,0,0,0,.7.7H8.34A.7.7,0,0,0,9,12.85Z"/><path class="cls-2" d="M10.12,8a.69.69,0,0,0,.49.21h0A.71.71,0,0,0,11.1,7l-1-1a.68.68,0,0,0-.49-.2.68.68,0,0,0-.7.7.65.65,0,0,0,.21.49Z"/><path class="cls-2" d="M25.05,12.26H23.6a.7.7,0,1,0,0,1.39h1.45a.7.7,0,1,0,0-1.39Z"/></g></g></svg>