<?xml version="1.0" encoding="utf-8"?>
<!-- Generator: Adobe Illustrator 25.3.1, SVG Export Plug-In . SVG Version: 6.00 Build 0)  -->
<svg version="1.1" id="Layer_1" xmlns="http://www.w3.org/2000/svg" xmlns:xlink="http://www.w3.org/1999/xlink" x="0px" y="0px"
	 viewBox="0 0 458.4 184" style="enable-background:new 0 0 458.4 184;" xml:space="preserve">
<path d="M230.6,20.1c3,0.1,5.9,1.3,8.2,3.3c3.1,3.1,4,7.7,2.5,11.8c-5.7,11.8-19.4,19.7-28.7,22.3c-5.6,1.3-12.6,1.3-17.7-0.7
	c-2.5,1.5-4.5,6.2-7.6,4.3c-4.4-3.4-0.6-8.7-3.1-12.5c-0.5-0.8-1.8-0.8-2.5-2.1c-3.4-7.6,0.8-14.8,5.6-20.5
	C195.2,17.1,217.9,7.3,230.6,20.1L230.6,20.1z M204.1,26c-4.4,0.8-9.4,2.7-12.1,5.9s-4.4,6.2-2.8,9.5c5.7-4.3,8.5-10.2,14.9-13.8
	C204.1,27,205.1,26.5,204.1,26z M230.9,27.6c-11.3-1-19.9,7.6-27.9,15.8c-0.5,1.3-3.4,2.8-1.1,4.3c10.8,1,21.2-2.1,29.1-9.4
	c2.3-2.1,3.9-4.9,2.8-7.9C233.1,29.2,232.1,28.2,230.9,27.6z M329.1,76.5c5.3,12.8,9.7,33,0,45.3c-2.6,3-7.2,5.7-10.2,3.4
	c-10.8-8.7-15.4-21.2-22.2-32.3c-1-0.5-1,0.8-1.5,1.3c-2.5,11.3,2.1,26.1-5.6,35c-2.9,0.6-5.8-1.1-6.7-3.9
	c-3.8-11.7,0.2-23.8,1.1-35.5c2.3-5.9,3.3-12.8,8.4-17.2c8.2,3.3,12.1,12.5,16.9,19.2c3.5,5.1,6.2,10.8,10.2,15.4
	c3.4-1.5,1.8-6,1.6-8.7c-1.3-10.7-4.3-20.5-7.1-30.7c-0.2-2.6-1.6-7.1,1.1-8.7C322.7,62.4,325.8,70.1,329.1,76.5L329.1,76.5z
	 M279.5,72.6c0,2.5-2,5.5-3.6,5.9c-15.8,2.5-33.3,1-48.1,5.9c-0.5,1.8,1.6,2.1,2.8,2.6c12.6,2,25.9,2.5,38.2,5.6
	c6.5,1.7,8.9,9.4,9.4,15.8c0.3,5-1.6,11.2-6.6,14.6c-12.1,7.7-30.7,7.4-43,0.3c-4.7-2.6-9.2-6.9-9.5-12.1c0-4.2,1.8-7.5,4.8-9
	c11.8-4.8,26.4-2.1,36.6,3.9c0.7,3.3-2.9,3.1-4.6,4.3c-11.3,6.6-19.9-7.4-30.4-2.3c-1.5,1-2.5,3.7-0.8,4.6c13,5.7,27.4,1.6,40.2-2
	c1.5-0.5,3.3-2,3.4-3.4c-0.5-5.3-6.4-6.4-10.2-7.9c-11.2-2.8-23.5-2.8-35.5-3.9c-2.3-0.5-5.2-2.1-5.9-3.9c-1.3-3.9-1.3-9.4,1.6-12.6
	c15.3-13.5,38.4-12.3,57.8-8.7C277.5,70.6,279,71.1,279.5,72.6L279.5,72.6z M207.8,78.8c1.6,15.6,2.2,31.3,2,46.9
	c-0.3,2.1-2.8,2.6-4.4,3.4c-2.6,0.5-6-0.1-7.1-1.5c-3.8-6.1-2.5-14.3-2.8-21.7c0.5-11.7,0.3-24.3,3.6-35.1c0.6-1.6,2.5-3,3.9-2
	C206.9,71,207.6,74.9,207.8,78.8L207.8,78.8z M390.1,76.5c0.8,1.3,1.6,3.4,0,4.3c-7.4,3.3-17.4,1.8-25.9,2.8c-2.3,2-4.1,5.3-3.3,8.2
	c0.8,0.5,1.6,1.2,2.5,1.1c5.2,0.3,13.1-2.5,16.6,2.5c0.8,1.5-0.1,6.9-2.5,7.1c-6.4,0.8-16.9-0.8-20,0.8c-3.9,2.6-3.6,7.7-5.1,11.8
	c2.8,1.8,5.7,0,9-0.5c6.1-1,12.8-2.8,18.9-1.5c1.1,2.1,2.8,4.4,1.6,7.1c-10.3,8.2-23.7,16.6-37.9,10.7c-5.3-2.4-7.7-10.5-5.9-17.4
	c1.1-4.9,6.2-9.7,3.1-14.9c-0.5-2.1,0.7-4.2,2.8-4.8c5.4,0,4.3-6.7,7.1-9.9c-3.1-3.4-11-3.3-10.2-10.2c3.8-2,8.4-1.3,12.6-2
	c9.7-2,20.5-3.1,30.4-2C385.9,70.2,388.5,74.1,390.1,76.5L390.1,76.5z M155.7,39.1c15.1,12.4,34.8,33.5,32.3,57.8
	c-3,19.2-23.3,33.6-40.5,38.2c-16.7,4.9-37.8,4.4-54.8,0.5c-1.1,3.1-2.3,6.9-5.9,8.2c-2.4,0.8-5,0.4-7.1-1.1c-5.1-4.8-1-14-8.4-16.9
	c-14.4-6.1-30-18.1-37.4-32.8c-1-3,0.2-5.9,2-8.2c11.3-9,25.6-12.6,39.9-15.4c0.8,0.3,0.5-0.8,1.1-1.1c0.8-9.8,1.1-19.9,4.3-28.7
	c0.7-1.2,2.3-1.6,3.5-0.9c0,0,0.1,0,0.1,0.1c9,6.9,4.8,19.9,8.7,29.2c17.2,0.8,34.5,1.6,48.1,11.3c4.6,3.8,5.7,11,4.3,15.1
	s-6.2,7.1-10.7,7.4c-3,0-8.5,0.3-8.2-2s10-5.9,7.1-9c-4.3-4.4-25.7-7.1-39-8.7c-1.6-0.3-3.1,0.2-3.1,2c-0.3,12.5-1.3,26.3,0.8,38.2
	c0.3,0.9,1,1.7,2,2c23.5,3.8,48.3,1.6,66.6-11.8c8.5-6.9,11.3-16.6,9.8-27.2c-7.4-29.7-38.4-47.6-63.8-59.1
	C81.7,14.7,53.7,9.6,25.7,11.1c-4.7,0.3-12.1,2-12.1,3.6S22,15.8,21,19s-9.6,1.3-12.1,0.5S6.5,15,7.2,12.7
	C13.6,1.4,31.4,0.5,39.5,0.1C84.2-1.1,127.3,15.9,155.7,39.1L155.7,39.1z M75.3,83.1C64,83.3,52,84.4,41.5,88.4
	c-2.1,0.8-4.8,3.1-3.1,5.9c4.3,5.7,10.4,10.5,16.1,13.8s13.3,7.6,20.2,8.5c1.6-10.7,1.6-21.2,1.5-32.2
	C75.5,84.1,76.1,83.4,75.3,83.1L75.3,83.1z M414.6,68.2c-0.5,14.3-13.8,23.1-13.8,37.4c0.5,0.5,0.8,1.1,1.5,0.8
	c10.7-11.7,21.2-28.2,36.8-33.2c4.1-0.3,7.8,3.2,9.4,5.9c5.4,10.8,4.1,26.1-3.4,35.9c-7.8,9.7-21.3,19.4-36.8,17.7
	c-6.4,15.9-10.9,32.6-13.3,49.6c-1.3,3.4-4.4,0.3-6.4-0.3c-13.3-10.5-2.4-38.3-1.5-41.9s4.5-11.9,7.1-18.9
	c-6.2-11.2-2.3-24.6,2.8-35c4.1-7.2,9.4-13.7,15.8-19C413.4,67.3,414.1,67.6,414.6,68.2L414.6,68.2z M441,85.9
	c-2-0.3-2.8,2.3-4.4,2.8c-7.5,8.5-15.1,17.1-18.9,27.2c5.1,0.7,9.4-2.6,13.8-4.4c7.5-4.8,12.3-12.6,11.8-21.7
	C443,88.4,441.7,87.2,441,85.9L441,85.9z"/>
</svg>
