<?xml version="1.0" encoding="utf-8"?>
<!-- Generator: Adobe Illustrator 25.3.1, SVG Export Plug-In . SVG Version: 6.00 Build 0)  -->
<svg version="1.1" id="Layer_1" xmlns="http://www.w3.org/2000/svg" xmlns:xlink="http://www.w3.org/1999/xlink" x="0px" y="0px"
	 viewBox="0 0 76 18.6" style="enable-background:new 0 0 76 18.6;" xml:space="preserve">
<style type="text/css">
	.st0{fill-rule:evenodd;clip-rule:evenodd;fill:#0D0C22;}
</style>
<path class="st0" d="M75.9,14.7c-3.2,5.4-8.2,3.8-9.7,2.6c-0.6,0.4-1.8,1.4-3.3,1.3c-3.2-0.2-4.3-4.8-4.3-4.8c0,0-1,0.3-1.5,0.3
	c0,1.3-1.2,4.5-4.3,4.5c-3.5,0-4.2-5.3-4.2-5.3s-0.3,0.5-1.7,1c0.1-1,0,4.2-4.2,4.2c-3.3,0.1-4.2-5.3-4.2-5.3s-0.6,0.6-1.7,0.8
	c0.1-1,0,4.5-4.3,4.5c-2.8,0-3.8-3.3-3.7-3.7c0.1-0.6-1,3.8-3.7,3.8c-1.1,0-2-0.9-2.5-2c-0.7,0.8-1.8,2-2.9,2c-2.1,0-3-1.7-2.9-6.7
	c0-0.6,0-0.8-0.6-0.9c-0.4-0.1-0.7-0.2-1.1-0.2c-0.1,0.4-1.2,7.7-4.7,7.9c-1.2,0-1.9-1-2.4-1.8c-0.8,1.1-1.9,1.8-3.5,1.8
	c-2.6,0-4.4-2.1-4.4-4.7C0,11.2,1.8,9,4.4,9c0.5,0,0.6,0.1,1,0.2C4.6,1.3,6.6,0,8.4,0c1.7,0,4.7,4,0.5,14.2c0.9,3,2.9,2.9,3.9-3.4
	c0.2-1.3-0.3-3,0.5-3.2c1.5-0.4,1.6,0.9,2.3,1.1c0.7,0.2,1.2,0.2,1.9,0.4c1.2,0.2,1.7,0.9,1.5,2.3c-0.2,1.8-0.5,4.5,0.5,4.8
	c0.7,0.2,1.9-1.2,2.1-1.9c0.2-0.8,0.3-1,0.3-1.6c0-1.2,0.1-2.1,0.3-3c0.1-0.4,0.2-0.6,0.6-0.6c0.3,0,0.9-0.1,1.2,0.1
	c0.4,0.3,0.3,0.5,0.3,1.2c-0.4,10.1,2.7,5.1,3.7,1C27.6,6.9,27.8,0.1,30.7,0c1.5-0.1,2.1,1.1,2.2,2c0.2,2.5-0.9,6.7-2.4,9.5
	c-0.9,5.7,3.8,6.8,4.5,2.3c-1.2-0.6-2.5-2.9-1.5-4c0.6-0.6,3.1,0.3,3.1,2.3c1.2-0.3,1.4-1,1.4-0.9c-0.3-4.6,0-11,2.8-11.1
	c1.5-0.1,2.1,1.1,2.2,2c0.2,2.5-0.9,6.7-2.4,9.5c-0.9,5.7,3.8,6.8,4.5,2.3c-0.9-0.2-2.8-2.7-1.7-4c0.6-0.7,3.1,0.8,3.3,2.3
	c1.2-0.3,1.3-1,1.3-0.9c-0.3-4.6,0-11,2.8-11.1c1.5-0.1,2.1,1.1,2.2,2c0.2,2.5-0.9,6.7-2.4,9.5c-0.9,5.7,3.8,6.8,4.5,2.3
	c-1.2-0.2-3-2.8-1.6-4.2c0.6-0.5,2.7,0.9,3.2,2.4c0.7,0,1.1-0.3,1.2-0.3C57,6.5,57.8,0.1,60.9,0c1.7,0,3.3,0.9,2.6,6
	c-0.7,4.9-3.1,6.9-3.1,6.9c0.1,0.6,1.4,5.5,4.6,2.9c-0.2-0.4-0.3-0.7-0.4-1.2C64,11.9,65,8.9,67.8,8.4c1.6-0.3,3.1,0.5,3.4,2.3
	c0.4,2.9-2.2,5-3.2,5.4c-0.4-0.3,4,2.6,6.7-3.1c0.2-0.3,0.3-0.3,0.6-0.1C75.4,13,76.3,13.9,75.9,14.7z M6.3,13.1
	c-0.1-0.4-0.4-1.3-0.5-1.7c-0.5-0.5-0.9-0.5-1.6-0.5c-1.5,0-2.4,1.4-2.4,2.9c0,1.5,1,2.9,2.5,2.9c1.3,0,2.3-0.9,2.7-2.2
	C6.7,14.1,6.5,13.6,6.3,13.1z M8.4,2.1C7.3,2.1,7,4.7,7,6.9c0.1,1.9,0.6,3.6,0.9,4.4C8,11.4,8,11.3,8,11.5C9.9,7.3,9.1,2.1,8.4,2.1z
	 M30.9,2.2c-1.4-0.2-1.4,5.6-1.2,6.9C30.4,8,31.6,2.5,30.9,2.2z M41,2.2c-1.4-0.2-1.4,5.6-1.2,6.9C40.5,8,41.8,2.5,41,2.2z
	 M51.1,2.3c-1.4-0.2-1.4,5.6-1.2,6.9C50.6,8.1,51.9,2.6,51.1,2.3z M61.1,1.9c-2.2,0.4-1.7,7.7-1.3,8.9C62.3,7.3,62.3,1.7,61.1,1.9z
	 M69.2,10.9c-0.1-0.5-0.7-0.7-1-0.6c-1.1,0.1-2.1,1.5-1.7,3.6c0.1,0.5,0.3,0.9,0.3,0.9C69.2,13.1,69.4,11.8,69.2,10.9z M23.2,7.5
	c-0.3,0-0.6-0.1-0.9-0.3c-0.3-0.2-0.5-0.4-0.6-0.7c-0.1-0.3-0.2-0.6-0.1-0.9c0.1-0.3,0.2-0.6,0.4-0.8c0.2-0.2,0.5-0.4,0.8-0.4
	s0.6,0,0.9,0.1c0.3,0.1,0.5,0.3,0.7,0.6s0.3,0.6,0.3,0.9c0,0.2,0,0.4-0.1,0.6c-0.1,0.2-0.2,0.4-0.3,0.5c-0.1,0.1-0.3,0.3-0.5,0.3
	C23.6,7.4,23.4,7.5,23.2,7.5z"/>
</svg>
