<?xml version="1.0" encoding="utf-8"?>
<!-- Generator: Adobe Illustrator 25.3.1, SVG Export Plug-In . SVG Version: 6.00 Build 0)  -->
<svg version="1.1" id="Layer_1" xmlns="http://www.w3.org/2000/svg" xmlns:xlink="http://www.w3.org/1999/xlink" x="0px" y="0px"
	 viewBox="0 0 144.1 144" style="enable-background:new 0 0 144.1 144;" xml:space="preserve">
<path d="M72,0C32.3,0,0,32.2,0,72c0,39.8,32.3,72,72,72c39.8,0,72-32.3,72-72C144.1,32.2,111.8,0,72,0z M42.1,32.5
	c4.9,0,8.9,3.6,8.9,8.1s-4,8.1-8.9,8.1c-4.9,0-8.9-3.6-8.9-8.1S37.2,32.5,42.1,32.5z M51.1,101.7H33.6V55.9h17.5V101.7z
	 M110.7,101.7H93.1V76.5c0-2.9-0.5-4.9-1.6-6.1c-1.1-1.2-2.6-1.8-4.5-1.8c-2.1,0-3.9,0.8-5.2,2.4c-1.3,1.6-2,4.5-2,8.7v22H62.3V55.9
	h16.3v7.5c2.4-3,4.9-5.2,7.4-6.5c2.5-1.3,5.5-2,9.1-2c4.9,0,8.7,1.4,11.4,4.3c2.7,2.9,4.1,7.3,4.1,13.4L110.7,101.7L110.7,101.7z"/>
</svg>
