<svg xmlns="http://www.w3.org/2000/svg" width="16" height="16" viewBox="0 0 16 16"><path d="M 9.5 0.001953125 C 8.1232946 0.001953125 6.5621869 0.24483437 5.2890625 0.99023438 C 4.0159381 1.7355344 3.0566406 3.0526719 3.0566406 4.9511719 C 3.0566406 5.9648719 2.9685816 6.2682625 2.796875 6.6015625 C 2.625168 6.9348625 2.2909797 7.3634781 1.8867188 8.3300781 A 0.50005006 0.50005006 0 0 0 2.3476562 9.0214844 L 3.3652344 9.0214844 C 3.3645212 9.1451844 3.3656563 9.1967625 3.3632812 9.4140625 A 0.50005006 0.50005006 0 0 0 3.3632812 9.4238281 C 3.3632812 10.646928 3.3613281 10.190575 3.3613281 11.046875 C 3.3613281 11.516075 3.2992891 11.985941 3.625 12.431641 C 3.7878555 12.654441 4.0434087 12.810831 4.328125 12.894531 C 4.6128413 12.978531 4.9388996 13.007812 5.3515625 13.007812 C 5.637854 13.008012 6.0987017 13.007812 6.4980469 13.007812 L 6.4980469 15.501953 A 0.50005006 0.50005006 0 0 0 6.9980469 16.001953 L 12.539062 16.001953 A 0.50005006 0.50005006 0 0 0 13.039062 15.501953 L 13.039062 12.003906 C 13.039062 10.347006 13.469017 9.5701156 13.953125 8.7285156 C 14.415652 7.9244156 14.922038 7.0059344 14.96875 5.5527344 A 0.50005006 0.50005006 0 0 0 15 5.3769531 C 14.999997 2.1750531 12.376736 0.001953125 9.5 0.001953125 z M 9.5 0.99804688 L 9.5 1.0019531 C 11.884395 1.0019531 13.999997 2.7136531 14 5.3769531 C 14 6.7318531 13.582014 7.3661156 13.085938 8.2285156 C 12.589859 9.0910156 12.039063 10.158353 12.039062 12.001953 L 12.039062 15 L 7.4980469 15 L 7.4980469 12.505859 A 0.50005006 0.50005006 0 0 0 6.9980469 12.005859 L 5.3515625 12.005859 C 4.9934554 12.005859 4.7483824 11.974594 4.609375 11.933594 C 4.4703676 11.892594 4.4483651 11.862844 4.4316406 11.839844 C 4.3981916 11.793844 4.3613281 11.532322 4.3613281 11.044922 C 4.3613281 10.192522 4.3632813 10.634834 4.3632812 9.4277344 L 4.3632812 9.4160156 C 4.3677212 9.0105156 4.3696375 8.7875906 4.3671875 8.6503906 C 4.3659575 8.5813906 4.3672862 8.5402844 4.3535156 8.4589844 C 4.3466256 8.4179844 4.3463657 8.3620062 4.2773438 8.2539062 C 4.2083227 8.1455062 3.9804877 8.0175781 3.8476562 8.0175781 L 3.1757812 8.0175781 C 3.3489791 7.7093781 3.5480732 7.3253875 3.6875 7.0546875 C 3.9272481 6.5892875 4.0566406 6.0303656 4.0566406 4.9472656 C 4.0566406 3.3660656 4.7541763 2.4590094 5.7949219 1.8496094 C 6.8356675 1.2403094 8.2461455 0.99804688 9.5 0.99804688 z M 9.4238281 2 C 7.7728962 2 6.4238281 3.3491 6.4238281 5 C 6.4238281 6.651 7.7728962 8 9.4238281 8 C 11.07476 8 12.423828 6.651 12.423828 5 C 12.423828 3.3491 11.07476 2 9.4238281 2 z M 8.9238281 3.0683594 L 8.9238281 4.5 L 7.4941406 4.5 C 7.6739464 3.7957536 8.219762 3.2485922 8.9238281 3.0683594 z M 9.9238281 3.0683594 C 10.627894 3.2485922 11.17371 3.7957536 11.353516 4.5 L 9.9238281 4.5 L 9.9238281 3.0683594 z M 7.4941406 5.5 L 8.9238281 5.5 L 8.9238281 6.9296875 C 8.2203716 6.7496107 7.6744316 6.2033706 7.4941406 5.5 z M 9.9238281 5.5 L 11.353516 5.5 C 11.173225 6.2033706 10.627285 6.7496107 9.9238281 6.9296875 L 9.9238281 5.5 z " color="#000" font-family="sans-serif" font-weight="400" overflow="visible" style="line-height:normal;text-indent:0;text-align:start;text-decoration-line:none;text-decoration-style:solid;text-decoration-color:#000;text-transform:none;block-progression:tb;isolation:auto;mix-blend-mode:normal"/></svg>