<svg xmlns="http://www.w3.org/2000/svg" viewBox="0 0 31.93 31.93"><defs><style>.cls-1{fill:#a0cb8a;}.cls-2{fill:#fff;}</style></defs><g id="Layer_2" data-name="Layer 2"><g id="Layer_1-2" data-name="Layer 1"><rect class="cls-1" width="31.93" height="31.93" rx="5.49"/><path class="cls-2" d="M25.14,6A14.45,14.45,0,0,0,23,5.85,12.92,12.92,0,0,0,16,7.9a13.06,13.06,0,0,0-7-2,14.23,14.23,0,0,0-2.17.19,1,1,0,0,0-.83,1v12a1,1,0,0,0,1,1l.19,0A10.92,10.92,0,0,1,15.39,22l.12.07h.11a.85.85,0,0,0,.7,0h.11l.12-.07a10.9,10.9,0,0,1,8.25-2A1,1,0,0,0,26,19.17,1.23,1.23,0,0,0,26,19V7A1,1,0,0,0,25.14,6ZM15,19.33a12.93,12.93,0,0,0-6-1.48H8v-10a8.34,8.34,0,0,1,1,0,10.94,10.94,0,0,1,6,1.8Zm9-1.44H23a12.93,12.93,0,0,0-6,1.48V9.65a10.91,10.91,0,0,1,6-1.8,8.34,8.34,0,0,1,1,0ZM25.14,22A14.45,14.45,0,0,0,23,21.85a12.92,12.92,0,0,0-7,2,13,13,0,0,0-7-2A14.23,14.23,0,0,0,6.8,22,1,1,0,0,0,6,23.19H6A1,1,0,0,0,7.14,24a10.92,10.92,0,0,1,8.25,1.91,1,1,0,0,0,1.16,0A10.91,10.91,0,0,1,24.8,24,1,1,0,1,0,25.14,22Z"/></g></g></svg>